<?xml version="1.0" encoding="utf-8"?>
<!-- Generator: Adobe Illustrator 25.2.1, SVG Export Plug-In . SVG Version: 6.00 Build 0)  -->
<svg version="1.1" id="图层_1" xmlns="http://www.w3.org/2000/svg" xmlns:xlink="http://www.w3.org/1999/xlink" x="0px" y="0px"
	 viewBox="0 0 301 301" style="enable-background:new 0 0 301 301;" xml:space="preserve">
<style type="text/css">
	.st0{filter:url(#Adobe_OpacityMaskFilter);}
	.st1{fill-rule:evenodd;clip-rule:evenodd;fill:#FFFFFF;}
	.st2{mask:url(#mask-2_1_);}
	.st3{fill-rule:evenodd;clip-rule:evenodd;fill:url(#path-4_8_);}
	.st4{filter:url(#Adobe_OpacityMaskFilter_1_);}
	.st5{mask:url(#mask-5_1_);fill-rule:evenodd;clip-rule:evenodd;fill:url(#椭圆形_4_);}
	.st6{filter:url(#Adobe_OpacityMaskFilter_2_);}
	.st7{mask:url(#mask-5_2_);}
	.st8{fill-rule:evenodd;clip-rule:evenodd;fill:#FFD291;}
	.st9{filter:url(#Adobe_OpacityMaskFilter_3_);}
	.st10{mask:url(#mask-8_1_);fill-rule:evenodd;clip-rule:evenodd;fill:#FEAE3B;}
	.st11{filter:url(#Adobe_OpacityMaskFilter_4_);}
	.st12{mask:url(#mask-5_3_);fill-rule:evenodd;clip-rule:evenodd;fill:url(#椭圆形_5_);}
	.st13{filter:url(#Adobe_OpacityMaskFilter_5_);}
	.st14{mask:url(#mask-5_4_);fill-rule:evenodd;clip-rule:evenodd;fill:url(#椭圆形备份-12_2_);}
	.st15{filter:url(#Adobe_OpacityMaskFilter_6_);}
	.st16{mask:url(#mask-5_5_);}
	.st17{filter:url(#Adobe_OpacityMaskFilter_7_);}
	.st18{mask:url(#mask-11_1_);fill-rule:evenodd;clip-rule:evenodd;fill:#FEAE3B;}
	.st19{filter:url(#Adobe_OpacityMaskFilter_8_);}
	.st20{mask:url(#mask-2_2_);}
	.st21{fill-rule:evenodd;clip-rule:evenodd;fill:url(#矩形备份-9_2_);}
	.st22{fill-rule:evenodd;clip-rule:evenodd;fill:url(#矩形备份-9_3_);}
	.st23{fill-rule:evenodd;clip-rule:evenodd;fill:#FFCE98;}
	.st24{fill-rule:evenodd;clip-rule:evenodd;fill:url(#矩形_2_);}
	.st25{fill-rule:evenodd;clip-rule:evenodd;fill:url(#形状结合_3_);}
	.st26{fill-rule:evenodd;clip-rule:evenodd;fill:url(#path-4_9_);}
	.st27{fill-rule:evenodd;clip-rule:evenodd;fill:url(#椭圆形_6_);}
	.st28{fill-rule:evenodd;clip-rule:evenodd;fill:#FFCB78;}
	.st29{fill-rule:evenodd;clip-rule:evenodd;fill:#FEA210;}
	.st30{fill-rule:evenodd;clip-rule:evenodd;fill:url(#椭圆形_7_);}
	.st31{fill-rule:evenodd;clip-rule:evenodd;fill:url(#椭圆形备份-12_3_);}
	.st32{fill-rule:evenodd;clip-rule:evenodd;fill:url(#路径-24_1_);}
	.st33{fill-rule:evenodd;clip-rule:evenodd;fill:url(#路径-34_1_);}
	.st34{fill-rule:evenodd;clip-rule:evenodd;fill:url(#路径-34备份_1_);}
	.st35{fill-rule:evenodd;clip-rule:evenodd;fill:url(#形状结合_4_);}
	.st36{fill:none;stroke:#FFEBD7;stroke-width:2;stroke-linejoin:round;}
	.st37{fill:none;stroke:#FFB144;stroke-width:2;stroke-linecap:round;stroke-linejoin:round;stroke-dasharray:5;}
	.st38{fill-rule:evenodd;clip-rule:evenodd;fill:#FFA15A;}
	.st39{fill-rule:evenodd;clip-rule:evenodd;fill:#ED7626;}
</style>
<g id="页面-1">
	<g id="画板备份-2" transform="translate(-1754.000000, -147.000000)">
		<g id="无订单无数据" transform="translate(1754.000000, 147.000000)">
			<g id="蒙版">
			</g>
			<defs>
				<filter id="Adobe_OpacityMaskFilter" filterUnits="userSpaceOnUse" x="-22" y="91" width="345" height="340.5">
					<feColorMatrix  type="matrix" values="1 0 0 0 0  0 1 0 0 0  0 0 1 0 0  0 0 0 1 0"/>
				</filter>
			</defs>
			<mask maskUnits="userSpaceOnUse" x="-22" y="91" width="345" height="340.5" id="mask-2_1_">
				<g class="st0">
					<rect id="path-1_1_" x="0.5" y="0.5" class="st1" width="300" height="300"/>
				</g>
			</mask>
			<g id="椭圆形备份-4" class="st2">
				<g transform="translate(20.000000, 91.000000)">
					<g id="蒙版_1_">
						
							<linearGradient id="path-4_8_" gradientUnits="userSpaceOnUse" x1="-18.5038" y1="209.9946" x2="-18.5038" y2="209.0106" gradientTransform="matrix(260.8043 0 0 -189.6583 4956.2817 39829.2344)">
							<stop  offset="0" style="stop-color:#FEAE3B;stop-opacity:0.2986"/>
							<stop  offset="1" style="stop-color:#FEAE3B;stop-opacity:0.1015"/>
						</linearGradient>
						<path id="path-4_1_" class="st3" d="M139.5,189.6c93.5-1,112.5-28,120.7-69.5c6.8-46.5-46-59.5-113.2-59.5
							c-39,0-48-28.4-74-45C37.7-7,0-12.4,0,50.1C0,171.6,62.5,190.5,139.5,189.6z"/>
					</g>
					<defs>
						<filter id="Adobe_OpacityMaskFilter_1_" filterUnits="userSpaceOnUse" x="-42" y="132.5" width="345" height="208">
							<feColorMatrix  type="matrix" values="1 0 0 0 0  0 1 0 0 0  0 0 1 0 0  0 0 0 1 0"/>
						</filter>
					</defs>
					<mask maskUnits="userSpaceOnUse" x="-42" y="132.5" width="345" height="208" id="mask-5_1_">
						<g class="st4">
							<path id="path-4_2_" class="st1" d="M139.5,189.6c93.5-1,112.5-28,120.7-69.5c6.8-46.5-46-59.5-113.2-59.5
								c-39,0-48-28.4-74-45C37.7-7,0-12.4,0,50.1C0,171.6,62.5,190.5,139.5,189.6z"/>
						</g>
					</mask>
					
						<radialGradient id="椭圆形_4_" cx="-18.4833" cy="210.0048" r="1.0619" gradientTransform="matrix(1.273634e-14 -208 -208.0002 -1.273633e-14 43815.6211 -3712.0347)" gradientUnits="userSpaceOnUse">
						<stop  offset="0" style="stop-color:#FEAE3B;stop-opacity:0.6186"/>
						<stop  offset="1" style="stop-color:#FFFFFF;stop-opacity:4.206731e-02"/>
					</radialGradient>
					<ellipse id="椭圆形" class="st5" cx="130.5" cy="236.5" rx="172.5" ry="104"/>
					<defs>
						<filter id="Adobe_OpacityMaskFilter_2_" filterUnits="userSpaceOnUse" x="196" y="116" width="23" height="39">
							<feColorMatrix  type="matrix" values="1 0 0 0 0  0 1 0 0 0  0 0 1 0 0  0 0 0 1 0"/>
						</filter>
					</defs>
					<mask maskUnits="userSpaceOnUse" x="196" y="116" width="23" height="39" id="mask-5_2_">
						<g class="st6">
							<path id="path-4_3_" class="st1" d="M139.5,189.6c93.5-1,112.5-28,120.7-69.5c6.8-46.5-46-59.5-113.2-59.5
								c-39,0-48-28.4-74-45C37.7-7,0-12.4,0,50.1C0,171.6,62.5,190.5,139.5,189.6z"/>
						</g>
					</mask>
					<g id="Fill-3_1_" class="st7">
						<g transform="translate(195.999913, 115.999237)">
							<g id="蒙版_2_">
								<path id="path-7_1_" class="st8" d="M11.4,0.2c0.1,0.1,0.2,0.3,0.3,0.5l10.4,34l-0.1,0C22,34.8,22,34.9,22,35
									c0,0.8-1.1,1.5-2.9,2l-0.4,0.1l0,0l-0.5,0.1l0,0l-0.5,0.1c-0.1,0-0.2,0-0.3,0.1l-0.5,0.1c-0.1,0-0.2,0-0.3,0l-0.6,0.1l0,0
									l-0.6,0.1l0,0l-0.6,0.1c-0.1,0-0.2,0-0.3,0L14,37.9l0,0l-0.6,0c-0.1,0-0.2,0-0.3,0l-0.7,0l0,0l-0.7,0l0,0L11,38l0,0l-0.7,0
									l0,0l-0.7,0l0,0L9,38l0,0l-0.6,0l0,0l-0.6,0c-0.1,0-0.2,0-0.3,0l-0.6-0.1l0,0l-0.6-0.1l0,0l-0.6-0.1c-0.1,0-0.2,0-0.3,0
									l-0.5-0.1c-0.1,0-0.2,0-0.3,0L4,37.3c-0.1,0-0.2,0-0.2-0.1l-0.5-0.1l0,0L2.9,37C1.1,36.5,0,35.8,0,35c0-0.1,0-0.2,0.1-0.4
									c0,0,0,0-0.1,0L10.4,0.7C10.6,0,11-0.2,11.4,0.2z"/>
							</g>
							<defs>
								<filter id="Adobe_OpacityMaskFilter_3_" filterUnits="userSpaceOnUse" x="11" y="0" width="12" height="39">
									<feColorMatrix  type="matrix" values="1 0 0 0 0  0 1 0 0 0  0 0 1 0 0  0 0 0 1 0"/>
								</filter>
							</defs>
							<mask maskUnits="userSpaceOnUse" x="11" y="0" width="12" height="39" id="mask-8_1_">
								<g class="st9">
									<path id="path-7_2_" class="st1" d="M11.4,0.2c0.1,0.1,0.2,0.3,0.3,0.5l10.4,34l-0.1,0C22,34.8,22,34.9,22,35
										c0,0.8-1.1,1.5-2.9,2l-0.4,0.1l0,0l-0.5,0.1l0,0l-0.5,0.1c-0.1,0-0.2,0-0.3,0.1l-0.5,0.1c-0.1,0-0.2,0-0.3,0l-0.6,0.1l0,0
										l-0.6,0.1l0,0l-0.6,0.1c-0.1,0-0.2,0-0.3,0L14,37.9l0,0l-0.6,0c-0.1,0-0.2,0-0.3,0l-0.7,0l0,0l-0.7,0l0,0L11,38l0,0l-0.7,0
										l0,0l-0.7,0l0,0L9,38l0,0l-0.6,0l0,0l-0.6,0c-0.1,0-0.2,0-0.3,0l-0.6-0.1l0,0l-0.6-0.1l0,0l-0.6-0.1c-0.1,0-0.2,0-0.3,0
										l-0.5-0.1c-0.1,0-0.2,0-0.3,0L4,37.3c-0.1,0-0.2,0-0.2-0.1l-0.5-0.1l0,0L2.9,37C1.1,36.5,0,35.8,0,35c0-0.1,0-0.2,0.1-0.4
										c0,0,0,0-0.1,0L10.4,0.7C10.6,0,11-0.2,11.4,0.2z"/>
								</g>
							</mask>
							<path id="Fill-3" class="st10" d="M23,35.5L15,39c0,0-4.1-39-4-38.8c0.6-0.3,0.9-0.3,1,0C14.6,7.7,18.2,19.5,23,35.5z"/>
						</g>
					</g>
					<defs>
						<filter id="Adobe_OpacityMaskFilter_4_" filterUnits="userSpaceOnUse" x="166" y="154" width="14" height="4">
							<feColorMatrix  type="matrix" values="1 0 0 0 0  0 1 0 0 0  0 0 1 0 0  0 0 0 1 0"/>
						</filter>
					</defs>
					<mask maskUnits="userSpaceOnUse" x="166" y="154" width="14" height="4" id="mask-5_3_">
						<g class="st11">
							<path id="path-4_4_" class="st1" d="M139.5,189.6c93.5-1,112.5-28,120.7-69.5c6.8-46.5-46-59.5-113.2-59.5
								c-39,0-48-28.4-74-45C37.7-7,0-12.4,0,50.1C0,171.6,62.5,190.5,139.5,189.6z"/>
						</g>
					</mask>
					
						<radialGradient id="椭圆形_5_" cx="-18.75" cy="209.4329" r="0.5" gradientTransform="matrix(2.449291e-16 4 14.8932 -9.119484e-16 -2946.1326 230.9992)" gradientUnits="userSpaceOnUse">
						<stop  offset="0" style="stop-color:#FEAE3B"/>
						<stop  offset="1" style="stop-color:#FFD291"/>
					</radialGradient>
					<ellipse id="椭圆形_1_" class="st12" cx="173" cy="156" rx="7" ry="2"/>
					<defs>
						<filter id="Adobe_OpacityMaskFilter_5_" filterUnits="userSpaceOnUse" x="92" y="141" width="14" height="4">
							<feColorMatrix  type="matrix" values="1 0 0 0 0  0 1 0 0 0  0 0 1 0 0  0 0 0 1 0"/>
						</filter>
					</defs>
					<mask maskUnits="userSpaceOnUse" x="92" y="141" width="14" height="4" id="mask-5_4_">
						<g class="st13">
							<path id="path-4_5_" class="st1" d="M139.5,189.6c93.5-1,112.5-28,120.7-69.5c6.8-46.5-46-59.5-113.2-59.5
								c-39,0-48-28.4-74-45C37.7-7,0-12.4,0,50.1C0,171.6,62.5,190.5,139.5,189.6z"/>
						</g>
					</mask>
					
						<radialGradient id="椭圆形备份-12_2_" cx="-18.75" cy="209.4329" r="0.5" gradientTransform="matrix(2.449291e-16 4 14.8932 -9.119484e-16 -3020.1326 217.9992)" gradientUnits="userSpaceOnUse">
						<stop  offset="0" style="stop-color:#FEAE3B"/>
						<stop  offset="1" style="stop-color:#FFD291"/>
					</radialGradient>
					<ellipse id="椭圆形备份-12" class="st14" cx="99" cy="143" rx="7" ry="2"/>
					<defs>
						<filter id="Adobe_OpacityMaskFilter_6_" filterUnits="userSpaceOnUse" x="55" y="129" width="11" height="17">
							<feColorMatrix  type="matrix" values="1 0 0 0 0  0 1 0 0 0  0 0 1 0 0  0 0 0 1 0"/>
						</filter>
					</defs>
					<mask maskUnits="userSpaceOnUse" x="55" y="129" width="11" height="17" id="mask-5_5_">
						<g class="st15">
							<path id="path-4_6_" class="st1" d="M139.5,189.6c93.5-1,112.5-28,120.7-69.5c6.8-46.5-46-59.5-113.2-59.5
								c-39,0-48-28.4-74-45C37.7-7,0-12.4,0,50.1C0,171.6,62.5,190.5,139.5,189.6z"/>
						</g>
					</mask>
					<g id="Fill-3_3_" class="st16">
						<g transform="translate(54.999913, 128.999237)">
							<g id="蒙版_3_">
								<path id="path-10_1_" class="st8" d="M5.7,0.1c0.1,0.1,0.1,0.1,0.1,0.2L11,14.6l0,0c0,0,0,0.1,0,0.1c0,0.3-0.5,0.6-1.4,0.9
									l-0.2,0.1l0,0l-0.2,0l0,0l-0.2,0c0,0-0.1,0-0.1,0l-0.3,0c0,0-0.1,0-0.1,0l-0.3,0l0,0l-0.3,0l0,0l-0.3,0c-0.1,0-0.1,0-0.2,0
									L7,16l0,0l-0.3,0c-0.1,0-0.1,0-0.2,0l-0.3,0l0,0l-0.3,0l0,0l-0.3,0l0,0l-0.3,0l0,0l-0.3,0l0,0l-0.3,0l0,0l-0.3,0l0,0l-0.3,0
									c-0.1,0-0.1,0-0.2,0l-0.3,0l0,0l-0.3,0l0,0l-0.3,0c0,0-0.1,0-0.1,0l-0.3,0c0,0-0.1,0-0.1,0l-0.3,0c0,0-0.1,0-0.1,0l-0.2,0
									l0,0l-0.2-0.1C0.5,15.4,0,15.1,0,14.7c0-0.1,0-0.1,0-0.1c0,0,0,0,0,0L5.2,0.3C5.3,0,5.5-0.1,5.7,0.1z"/>
							</g>
							<defs>
								<filter id="Adobe_OpacityMaskFilter_7_" filterUnits="userSpaceOnUse" x="5" y="0" width="6" height="17">
									<feColorMatrix  type="matrix" values="1 0 0 0 0  0 1 0 0 0  0 0 1 0 0  0 0 0 1 0"/>
								</filter>
							</defs>
							<mask maskUnits="userSpaceOnUse" x="5" y="0" width="6" height="17" id="mask-11_1_">
								<g class="st17">
									<path id="path-10_2_" class="st1" d="M5.7,0.1c0.1,0.1,0.1,0.1,0.1,0.2L11,14.6l0,0c0,0,0,0.1,0,0.1c0,0.3-0.5,0.6-1.4,0.9
										l-0.2,0.1l0,0l-0.2,0l0,0l-0.2,0c0,0-0.1,0-0.1,0l-0.3,0c0,0-0.1,0-0.1,0l-0.3,0l0,0l-0.3,0l0,0l-0.3,0c-0.1,0-0.1,0-0.2,0
										L7,16l0,0l-0.3,0c-0.1,0-0.1,0-0.2,0l-0.3,0l0,0l-0.3,0l0,0l-0.3,0l0,0l-0.3,0l0,0l-0.3,0l0,0l-0.3,0l0,0l-0.3,0l0,0
										l-0.3,0c-0.1,0-0.1,0-0.2,0l-0.3,0l0,0l-0.3,0l0,0l-0.3,0c0,0-0.1,0-0.1,0l-0.3,0c0,0-0.1,0-0.1,0l-0.3,0c0,0-0.1,0-0.1,0
										l-0.2,0l0,0l-0.2-0.1C0.5,15.4,0,15.1,0,14.7c0-0.1,0-0.1,0-0.1c0,0,0,0,0,0L5.2,0.3C5.3,0,5.5-0.1,5.7,0.1z"/>
								</g>
							</mask>
							<path id="Fill-3_2_" class="st18" d="M11,15.5L7,17C7,17,5,0,5,0.1C5.3,0,5.4,0,5.5,0.1C6.8,3.4,8.6,8.5,11,15.5z"/>
						</g>
					</g>
				</g>
			</g>
			<defs>
				<filter id="Adobe_OpacityMaskFilter_8_" filterUnits="userSpaceOnUse" x="72" y="29" width="176" height="166">
					<feColorMatrix  type="matrix" values="1 0 0 0 0  0 1 0 0 0  0 0 1 0 0  0 0 0 1 0"/>
				</filter>
			</defs>
			<mask maskUnits="userSpaceOnUse" x="72" y="29" width="176" height="166" id="mask-2_2_">
				<g class="st19">
					<rect id="path-1_2_" x="0.5" y="0.5" class="st1" width="300" height="300"/>
				</g>
			</mask>
			<g id="编组-2" class="st20">
				<g transform="translate(72.000000, 29.000000)">
					
						<linearGradient id="矩形备份-9_2_" gradientUnits="userSpaceOnUse" x1="-70.5501" y1="272.0123" x2="-70.5501" y2="271.0144" gradientTransform="matrix(19.962 0 0 -69.3418 1574.3235 18920.7988)">
						<stop  offset="0" style="stop-color:#FFDEB7"/>
						<stop  offset="1" style="stop-color:#FFD9B2"/>
					</linearGradient>
					<path id="矩形备份-9" class="st21" d="M166,58.8c5.5,0,10,4.5,10,10v48.9c0,5.8-4.7,10.5-10.5,10.5H156l0,0V68.8
						C156,63.3,160.5,58.8,166,58.8z"/>
					
						<linearGradient id="矩形备份-9_3_" gradientUnits="userSpaceOnUse" x1="-70.5595" y1="271.9901" x2="-70.5595" y2="271.0144" gradientTransform="matrix(16.8101 0 0 -69.3418 1350.5386 18920.7988)">
						<stop  offset="3.229374e-07" style="stop-color:#FF6F00"/>
						<stop  offset="1" style="stop-color:#FEC854"/>
					</linearGradient>
					<path id="矩形备份-9_1_" class="st22" d="M164.4,58.8c4.6,0,8.4,3.8,8.4,8.4v50.4c0,5.8-4.7,10.5-10.5,10.5H156l0,0V67.2
						C156,62.6,159.8,58.8,164.4,58.8z"/>
					<path id="形状结合" class="st23" d="M164.9,58.8c-4.9,0-8.9,4-8.9,8.9l0,0v62.5l0.2,0l0,24.3c0,6.2-4.9,11.2-11.1,11.4
						l-0.3,0c-6.3,0-11.4-5.1-11.4-11.4l0,0V58.8H164.9z"/>
					
						<linearGradient id="矩形_2_" gradientUnits="userSpaceOnUse" x1="-70.5069" y1="272.0039" x2="-70.5069" y2="271.006" gradientTransform="matrix(146.038 0 0 -166 10373.8994 45153)">
						<stop  offset="0" style="stop-color:#FFDEB7"/>
						<stop  offset="1" style="stop-color:#FFD9B2"/>
					</linearGradient>
					<path id="矩形" class="st24" d="M28.4,0h82.2c13.9,0,25.2,11.3,25.2,25.2v130.2l0,0c0,6.4,4.8,9.6,14.4,9.6
						c-2.6,0.6-5.1,1-7.7,1c-27,0-67.5-1.2-121.4-3.6c-3.7-0.2-9.3-5.6-16.9-16.4V24.2C4.2,10.8,15,0,28.4,0z"/>
					
						<linearGradient id="形状结合_3_" gradientUnits="userSpaceOnUse" x1="-70.5071" y1="271.9818" x2="-70.5071" y2="271.0062" gradientTransform="matrix(141.2892 0 0 -161.7975 10032.5352 44014.1133)">
						<stop  offset="3.229374e-07" style="stop-color:#FF6F00"/>
						<stop  offset="1" style="stop-color:#FEC854"/>
					</linearGradient>
					<path id="形状结合_1_" class="st25" d="M107.2,4.2c13.3,0,24.2,10.8,24.2,24.2l0,0l0,30.5l0,0v95.8c0,5.8,4.3,10.6,10,11.3
						c-0.5,0.1-1,0.1-1.6,0.1l0,0H24.2C10.8,166,0,155.2,0,141.8l0,0V28.4C0,15,10.8,4.2,24.2,4.2l0,0H107.2z"/>
					<path id="矩形_1_" class="st1" d="M33.6,44.1h58.8c2.9,0,5.3,2.4,5.3,5.3v0c0,2.9-2.4,5.3-5.3,5.3H33.6
						c-2.9,0-5.3-2.4-5.3-5.3v0C28.4,46.5,30.7,44.1,33.6,44.1z"/>
					<path id="矩形备份-13" class="st1" d="M34.7,73.5h57.8c2.9,0,5.3,2.4,5.3,5.3l0,0c0,2.9-2.4,5.3-5.3,5.3H34.7
						c-2.9,0-5.3-2.4-5.3-5.3l0,0C29.4,75.9,31.8,73.5,34.7,73.5z"/>
					<path id="矩形备份-10" class="st1" d="M33.6,73.5h58.8c2.9,0,5.3,2.4,5.3,5.3l0,0c0,2.9-2.4,5.3-5.3,5.3H33.6
						c-2.9,0-5.3-2.4-5.3-5.3l0,0C28.4,75.9,30.7,73.5,33.6,73.5z"/>
					<path id="矩形备份-11" class="st1" d="M34.1,103h26.3c3.2,0,5.8,2.6,5.8,5.8l0,0c0,3.2-2.6,5.8-5.8,5.8H34.1
						c-3.2,0-5.8-2.6-5.8-5.8l0,0C28.4,105.5,31,103,34.1,103z"/>
				</g>
			</g>
		</g>
	</g>
</g>
<g id="页面-1_1_">
	<g id="画板备份-2_1_" transform="translate(-185.000000, -731.000000)">
		<g id="页面为空" transform="translate(185.000000, 731.000000)">
			<g id="蒙版_7_">
			</g>
			<g id="椭圆形备份-4_1_">
				<g transform="translate(20.000000, 90.000000)">
					<g id="蒙版_6_">
						
							<linearGradient id="path-4_9_" gradientUnits="userSpaceOnUse" x1="97.3029" y1="138.345" x2="97.3029" y2="139.329" gradientTransform="matrix(260.8043 0 0 189.6583 -25680.625 -26223.5059)">
							<stop  offset="0" style="stop-color:#FEA210;stop-opacity:0.2986"/>
							<stop  offset="1" style="stop-color:#FEA210;stop-opacity:0.1015"/>
						</linearGradient>
						<path id="path-4_7_" class="st26" d="M-294.5,202.3c93.5-1,112.5-28,120.7-69.5c6.8-46.5-46-59.5-113.2-59.5
							c-39,0-48-28.4-74-45c-35.3-22.6-73-28-73,34.5C-434,184.3-371.5,203.2-294.5,202.3z"/>
					</g>
					
						<radialGradient id="椭圆形_6_" cx="100.1188" cy="136.2452" r="1.0619" gradientTransform="matrix(1.273634e-14 -208 208.0002 1.273633e-14 -28638.4414 20969.9648)" gradientUnits="userSpaceOnUse">
						<stop  offset="0" style="stop-color:#FEA210;stop-opacity:0.6186"/>
						<stop  offset="1" style="stop-color:#FFFFFF;stop-opacity:4.206731e-02"/>
					</radialGradient>
					<ellipse id="椭圆形_3_" class="st27" cx="-303.5" cy="249.2" rx="172.5" ry="104"/>
					<g id="Fill-3_6_">
						<g transform="translate(195.999913, 115.999237)">
							<g id="蒙版_5_">
								<path id="path-7_3_" class="st28" d="M-422.6,12.9c0.1,0.1,0.2,0.3,0.3,0.5l10.4,34h-0.1c0,0.1,0,0.2,0,0.3
									c0,0.8-1.1,1.5-2.9,2l-0.4,0.1l0,0l-0.5,0.1l0,0l-0.5,0.1c-0.1,0-0.2,0-0.3,0.1l-0.5,0.1c-0.1,0-0.2,0-0.3,0l-0.6,0.1l0,0
									l-0.6,0.1l0,0l-0.6,0.1c-0.1,0-0.2,0-0.3,0l-0.5,0.1l0,0h-0.6c-0.1,0-0.2,0-0.3,0h-0.7l0,0h-0.7l0,0l-0.7,0.1l0,0h-0.7l0,0
									h-0.7l0,0h-0.6l0,0h-0.6l0,0h-0.6c-0.1,0-0.2,0-0.3,0l-0.6-0.1l0,0l-0.6-0.1l0,0l-0.6-0.1c-0.1,0-0.2,0-0.3,0l-0.5-0.1
									c-0.1,0-0.2,0-0.3,0L-430,50c-0.1,0-0.2,0-0.2-0.1l-0.5-0.1l0,0l-0.4-0.1c-1.8-0.5-2.9-1.2-2.9-2c0-0.1,0-0.2,0.1-0.4
									c0,0,0,0-0.1,0l10.4-33.9C-423.4,12.7-423,12.5-422.6,12.9z"/>
							</g>
							<path id="Fill-3_7_" class="st29" d="M-411,48.2l-8,3.5c0,0-4.1-39-4-38.8c0.6-0.3,0.9-0.3,1,0
								C-419.4,20.4-415.8,32.2-411,48.2z"/>
						</g>
					</g>
					
						<radialGradient id="椭圆形_7_" cx="67.9375" cy="177.9738" r="0.5" gradientTransform="matrix(2.449291e-16 4 -14.8932 9.119484e-16 2389.5989 -103.0008)" gradientUnits="userSpaceOnUse">
						<stop  offset="0" style="stop-color:#FEA210"/>
						<stop  offset="1" style="stop-color:#FFCB78"/>
					</radialGradient>
					<ellipse id="椭圆形_2_" class="st30" cx="-261" cy="168.7" rx="7" ry="2"/>
					
						<radialGradient id="椭圆形备份-12_3_" cx="67.9375" cy="177.9738" r="0.5" gradientTransform="matrix(2.449291e-16 4 -14.8932 9.119484e-16 2315.5989 -116.0008)" gradientUnits="userSpaceOnUse">
						<stop  offset="0" style="stop-color:#FEA210"/>
						<stop  offset="1" style="stop-color:#FFCB78"/>
					</radialGradient>
					<ellipse id="椭圆形备份-12_1_" class="st31" cx="-335" cy="155.7" rx="7" ry="2"/>
					<g id="Fill-3_4_">
						<g transform="translate(54.999913, 128.999237)">
							<g id="蒙版_4_">
								<path id="path-10_3_" class="st28" d="M-428.3,12.8c0.1,0.1,0.1,0.1,0.1,0.2l5.2,14.3l0,0v0.1c0,0.3-0.5,0.6-1.4,0.9
									l-0.2,0.1l0,0h-0.2l0,0h-0.2h-0.1h-0.3h-0.1h-0.3l0,0h-0.3l0,0h-0.3c-0.1,0-0.1,0-0.2,0l-0.4,0.3l0,0h-0.3
									c-0.1,0-0.1,0-0.2,0h-0.3l0,0h-0.3l0,0h-0.3l0,0h-0.3l0,0h-0.3l0,0h-0.3l0,0h-0.3l0,0h-0.3c-0.1,0-0.1,0-0.2,0h-0.3l0,0
									h-0.3l0,0h-0.3h-0.1h-0.3h-0.1h-0.3h-0.1h-0.2l0,0l-0.2-0.1c-1.2-0.5-1.7-0.8-1.7-1.2c0-0.1,0-0.1,0-0.1l0,0l5.2-14.3
									C-428.7,12.7-428.5,12.6-428.3,12.8z"/>
							</g>
							<path id="Fill-3_5_" class="st29" d="M-423,28.2l-4,1.5c0,0-2-17-2-16.9c0.3-0.1,0.4-0.1,0.5,0
								C-427.2,16.1-425.4,21.2-423,28.2z"/>
						</g>
					</g>
				</g>
			</g>
			<g id="编组-11">
				<g transform="translate(70.000000, 8.000000)">
					
						<linearGradient id="路径-24_1_" gradientUnits="userSpaceOnUse" x1="-3.8905" y1="136.1094" x2="-3.8905" y2="136.8326" gradientTransform="matrix(169 0 0 42.5 308 -5702)">
						<stop  offset="0" style="stop-color:#FFD07D"/>
						<stop  offset="1" style="stop-color:#E66F00"/>
					</linearGradient>
					<polygon id="路径-24" class="st32" points="-399,79.2 -434,96.4 -434,119 -265,121.7 -265,96.4 -292,79.2 					"/>
					
						<linearGradient id="路径-34_1_" gradientUnits="userSpaceOnUse" x1="-17.3529" y1="131.6534" x2="-17.3529" y2="132.3766" gradientTransform="matrix(34 0 0 17 174 -2156.5)">
						<stop  offset="0" style="stop-color:#FFB650"/>
						<stop  offset="1" style="stop-color:#ECA420"/>
					</linearGradient>
					<polygon id="路径-34" class="st33" points="-399,80.2 -399,97.2 -433,97.2 					"/>
					
						<linearGradient id="路径-34备份_1_" gradientUnits="userSpaceOnUse" x1="21.5385" y1="132.066" x2="21.5385" y2="132.7892" gradientTransform="matrix(-26 0 0 18 281 -2295.5)">
						<stop  offset="0" style="stop-color:#FFB650"/>
						<stop  offset="1" style="stop-color:#ECA420"/>
					</linearGradient>
					<polygon id="路径-34备份" class="st34" points="-292,80.2 -292,98.2 -266,98.2 					"/>
					
						<linearGradient id="形状结合_4_" gradientUnits="userSpaceOnUse" x1="-3.8905" y1="138.6033" x2="-3.8905" y2="137.6277" gradientTransform="matrix(169 0 0 92 308 -12564)">
						<stop  offset="3.229374e-07" style="stop-color:#FF6F00"/>
						<stop  offset="1" style="stop-color:#FEC854"/>
					</linearGradient>
					<path id="形状结合_2_" class="st35" d="M-373,111.7c0,2.2,1.8,4,4,4h35c2.2,0,4-1.8,4-4v-14h65v82c0,5.5-4.5,10-10,10h-149
						c-5.5,0-10-4.5-10-10v-82h61V111.7z"/>
					<path id="路径-25" class="st36" d="M-399,79.2l-35,18l60.3,0.5l-0.4,13.9c-0.1,2.2,1.7,4,3.9,4.1h0.1h35.2
						c2.2,0,3.9-1.7,4-3.9l0.4-14.1l0,0l65.5-0.5l-27-18H-399z"/>
					<path id="路径-4" class="st37" d="M-360,94.7c26-21.7,33.3-34.5,22-38.5c-11.5-4-16.6,11.2-9,15c4.4,2.2,14.4,1.5,21-2.5
						c12-7.3,22.7-15.5,32-24.5"/>
					<g id="编组-9" transform="translate(127.000000, 0.000000)">
						<polygon id="路径-5" class="st38" points="-434,22.7 -379,12.7 -395,48.7 						"/>
						<polygon id="路径-26" class="st39" points="-419,32.7 -418,47.7 -380,13.7 						"/>
					</g>
					
						<g id="编组-6" transform="translate(56.000000, 36.500000) scale(-1, 1) translate(-56.000000, -36.500000) translate(43.000000, 28.000000)">
						<polygon id="路径-5_1_" class="st38" points="434,17.4 460,12.7 452.4,29.7 						"/>
						<polygon id="路径-26_1_" class="st39" points="441,22.6 441.5,29.7 459,13.7 						"/>
					</g>
				</g>
			</g>
		</g>
	</g>
</g>
</svg>
