<?xml version="1.0" encoding="utf-8"?>
<!-- Generator: Adobe Illustrator 25.2.1, SVG Export Plug-In . SVG Version: 6.00 Build 0)  -->
<svg version="1.1" id="图层_1" xmlns="http://www.w3.org/2000/svg" xmlns:xlink="http://www.w3.org/1999/xlink" x="0px" y="0px"
	 viewBox="0 0 301 301" style="enable-background:new 0 0 301 301;" xml:space="preserve">
<style type="text/css">
	.st0{filter:url(#Adobe_OpacityMaskFilter);}
	.st1{fill-rule:evenodd;clip-rule:evenodd;fill:#FFFFFF;}
	.st2{mask:url(#mask-2_1_);}
	.st3{fill-rule:evenodd;clip-rule:evenodd;fill:url(#path-4_7_);}
	.st4{filter:url(#Adobe_OpacityMaskFilter_1_);}
	.st5{mask:url(#mask-5_1_);fill-rule:evenodd;clip-rule:evenodd;fill:url(#椭圆形_2_);}
	.st6{filter:url(#Adobe_OpacityMaskFilter_2_);}
	.st7{mask:url(#mask-5_2_);}
	.st8{fill-rule:evenodd;clip-rule:evenodd;fill:#52E2C7;}
	.st9{filter:url(#Adobe_OpacityMaskFilter_3_);}
	.st10{mask:url(#mask-8_1_);fill-rule:evenodd;clip-rule:evenodd;fill:#1DBC96;}
	.st11{filter:url(#Adobe_OpacityMaskFilter_4_);}
	.st12{mask:url(#mask-5_3_);fill-rule:evenodd;clip-rule:evenodd;fill:url(#椭圆形_3_);}
	.st13{filter:url(#Adobe_OpacityMaskFilter_5_);}
	.st14{mask:url(#mask-5_4_);fill-rule:evenodd;clip-rule:evenodd;fill:url(#椭圆形备份-12_1_);}
	.st15{filter:url(#Adobe_OpacityMaskFilter_6_);}
	.st16{mask:url(#mask-5_5_);}
	.st17{filter:url(#Adobe_OpacityMaskFilter_7_);}
	.st18{mask:url(#mask-11_1_);fill-rule:evenodd;clip-rule:evenodd;fill:#1DBC96;}
	.st19{filter:url(#Adobe_OpacityMaskFilter_8_);}
	.st20{mask:url(#mask-2_2_);}
	.st21{fill-rule:evenodd;clip-rule:evenodd;fill:url(#矩形备份-9_2_);}
	.st22{fill-rule:evenodd;clip-rule:evenodd;fill:#00C692;}
	.st23{fill-rule:evenodd;clip-rule:evenodd;fill:#3ADDB3;}
	.st24{fill-rule:evenodd;clip-rule:evenodd;fill:#D9FFF5;}
	.st25{fill-rule:evenodd;clip-rule:evenodd;fill:url(#形状结合_2_);}
</style>
<g id="页面-1">
	<g id="画板备份-2" transform="translate(-1754.000000, -147.000000)">
		<g id="无订单无数据" transform="translate(1754.000000, 147.000000)">
			<g id="蒙版">
			</g>
			<defs>
				<filter id="Adobe_OpacityMaskFilter" filterUnits="userSpaceOnUse" x="-22" y="91" width="345" height="340.5">
					<feColorMatrix  type="matrix" values="1 0 0 0 0  0 1 0 0 0  0 0 1 0 0  0 0 0 1 0"/>
				</filter>
			</defs>
			<mask maskUnits="userSpaceOnUse" x="-22" y="91" width="345" height="340.5" id="mask-2_1_">
				<g class="st0">
					<rect id="path-1_1_" x="0.5" y="0.5" class="st1" width="300" height="300"/>
				</g>
			</mask>
			<g id="椭圆形备份-4" class="st2">
				<g transform="translate(20.000000, 91.000000)">
					<g id="蒙版_1_">
						
							<linearGradient id="path-4_7_" gradientUnits="userSpaceOnUse" x1="-18.5038" y1="209.9946" x2="-18.5038" y2="209.0106" gradientTransform="matrix(260.8043 0 0 -189.6583 4956.2817 39829.2344)">
							<stop  offset="0" style="stop-color:#2FDDBD;stop-opacity:0.2986"/>
							<stop  offset="1" style="stop-color:#2FDDBD;stop-opacity:0.1015"/>
						</linearGradient>
						<path id="path-4_1_" class="st3" d="M139.5,189.6c93.5-1,112.5-28,120.7-69.5c6.8-46.5-46-59.5-113.2-59.5
							c-39,0-48-28.4-74-45C37.7-7,0-12.4,0,50.1C0,171.6,62.5,190.5,139.5,189.6z"/>
					</g>
					<defs>
						<filter id="Adobe_OpacityMaskFilter_1_" filterUnits="userSpaceOnUse" x="-42" y="132.5" width="345" height="208">
							<feColorMatrix  type="matrix" values="1 0 0 0 0  0 1 0 0 0  0 0 1 0 0  0 0 0 1 0"/>
						</filter>
					</defs>
					<mask maskUnits="userSpaceOnUse" x="-42" y="132.5" width="345" height="208" id="mask-5_1_">
						<g class="st4">
							<path id="path-4_2_" class="st1" d="M139.5,189.6c93.5-1,112.5-28,120.7-69.5c6.8-46.5-46-59.5-113.2-59.5
								c-39,0-48-28.4-74-45C37.7-7,0-12.4,0,50.1C0,171.6,62.5,190.5,139.5,189.6z"/>
						</g>
					</mask>
					
						<radialGradient id="椭圆形_2_" cx="-18.4833" cy="210.0048" r="1.0619" gradientTransform="matrix(1.273634e-14 -208 -208.0002 -1.273633e-14 43815.6211 -3712.0347)" gradientUnits="userSpaceOnUse">
						<stop  offset="0" style="stop-color:#2FDDBD;stop-opacity:0.6186"/>
						<stop  offset="1" style="stop-color:#FFFFFF;stop-opacity:4.206731e-02"/>
					</radialGradient>
					<ellipse id="椭圆形" class="st5" cx="130.5" cy="236.5" rx="172.5" ry="104"/>
					<defs>
						<filter id="Adobe_OpacityMaskFilter_2_" filterUnits="userSpaceOnUse" x="196" y="116" width="23" height="39">
							<feColorMatrix  type="matrix" values="1 0 0 0 0  0 1 0 0 0  0 0 1 0 0  0 0 0 1 0"/>
						</filter>
					</defs>
					<mask maskUnits="userSpaceOnUse" x="196" y="116" width="23" height="39" id="mask-5_2_">
						<g class="st6">
							<path id="path-4_3_" class="st1" d="M139.5,189.6c93.5-1,112.5-28,120.7-69.5c6.8-46.5-46-59.5-113.2-59.5
								c-39,0-48-28.4-74-45C37.7-7,0-12.4,0,50.1C0,171.6,62.5,190.5,139.5,189.6z"/>
						</g>
					</mask>
					<g id="Fill-3_1_" class="st7">
						<g transform="translate(195.999913, 115.999237)">
							<g id="蒙版_2_">
								<path id="path-7_1_" class="st8" d="M11.4,0.2c0.1,0.1,0.2,0.3,0.3,0.5l10.4,34l-0.1,0C22,34.8,22,34.9,22,35
									c0,0.8-1.1,1.5-2.9,2l-0.4,0.1l0,0l-0.5,0.1l0,0l-0.5,0.1c-0.1,0-0.2,0-0.3,0.1l-0.5,0.1c-0.1,0-0.2,0-0.3,0l-0.6,0.1l0,0
									l-0.6,0.1l0,0l-0.6,0.1c-0.1,0-0.2,0-0.3,0L14,37.9l0,0l-0.6,0c-0.1,0-0.2,0-0.3,0l-0.7,0l0,0l-0.7,0l0,0L11,38l0,0l-0.7,0
									l0,0l-0.7,0l0,0L9,38l0,0l-0.6,0l0,0l-0.6,0c-0.1,0-0.2,0-0.3,0l-0.6-0.1l0,0l-0.6-0.1l0,0l-0.6-0.1c-0.1,0-0.2,0-0.3,0
									l-0.5-0.1c-0.1,0-0.2,0-0.3,0L4,37.3c-0.1,0-0.2,0-0.2-0.1l-0.5-0.1l0,0L2.9,37C1.1,36.5,0,35.8,0,35c0-0.1,0-0.2,0.1-0.4
									c0,0,0,0-0.1,0L10.4,0.7C10.6,0,11-0.2,11.4,0.2z"/>
							</g>
							<defs>
								<filter id="Adobe_OpacityMaskFilter_3_" filterUnits="userSpaceOnUse" x="11" y="0" width="12" height="39">
									<feColorMatrix  type="matrix" values="1 0 0 0 0  0 1 0 0 0  0 0 1 0 0  0 0 0 1 0"/>
								</filter>
							</defs>
							<mask maskUnits="userSpaceOnUse" x="11" y="0" width="12" height="39" id="mask-8_1_">
								<g class="st9">
									<path id="path-7_2_" class="st1" d="M11.4,0.2c0.1,0.1,0.2,0.3,0.3,0.5l10.4,34l-0.1,0C22,34.8,22,34.9,22,35
										c0,0.8-1.1,1.5-2.9,2l-0.4,0.1l0,0l-0.5,0.1l0,0l-0.5,0.1c-0.1,0-0.2,0-0.3,0.1l-0.5,0.1c-0.1,0-0.2,0-0.3,0l-0.6,0.1l0,0
										l-0.6,0.1l0,0l-0.6,0.1c-0.1,0-0.2,0-0.3,0L14,37.9l0,0l-0.6,0c-0.1,0-0.2,0-0.3,0l-0.7,0l0,0l-0.7,0l0,0L11,38l0,0l-0.7,0
										l0,0l-0.7,0l0,0L9,38l0,0l-0.6,0l0,0l-0.6,0c-0.1,0-0.2,0-0.3,0l-0.6-0.1l0,0l-0.6-0.1l0,0l-0.6-0.1c-0.1,0-0.2,0-0.3,0
										l-0.5-0.1c-0.1,0-0.2,0-0.3,0L4,37.3c-0.1,0-0.2,0-0.2-0.1l-0.5-0.1l0,0L2.9,37C1.1,36.5,0,35.8,0,35c0-0.1,0-0.2,0.1-0.4
										c0,0,0,0-0.1,0L10.4,0.7C10.6,0,11-0.2,11.4,0.2z"/>
								</g>
							</mask>
							<path id="Fill-3" class="st10" d="M23,35.5L15,39c0,0-4.1-39-4-38.8c0.6-0.3,0.9-0.3,1,0C14.6,7.7,18.2,19.5,23,35.5z"/>
						</g>
					</g>
					<defs>
						<filter id="Adobe_OpacityMaskFilter_4_" filterUnits="userSpaceOnUse" x="166" y="154" width="14" height="4">
							<feColorMatrix  type="matrix" values="1 0 0 0 0  0 1 0 0 0  0 0 1 0 0  0 0 0 1 0"/>
						</filter>
					</defs>
					<mask maskUnits="userSpaceOnUse" x="166" y="154" width="14" height="4" id="mask-5_3_">
						<g class="st11">
							<path id="path-4_4_" class="st1" d="M139.5,189.6c93.5-1,112.5-28,120.7-69.5c6.8-46.5-46-59.5-113.2-59.5
								c-39,0-48-28.4-74-45C37.7-7,0-12.4,0,50.1C0,171.6,62.5,190.5,139.5,189.6z"/>
						</g>
					</mask>
					
						<radialGradient id="椭圆形_3_" cx="-18.75" cy="209.4329" r="0.5" gradientTransform="matrix(2.449291e-16 4 14.8932 -9.119484e-16 -2946.1326 230.9992)" gradientUnits="userSpaceOnUse">
						<stop  offset="0" style="stop-color:#2FDDBD"/>
						<stop  offset="1" style="stop-color:#7BDECC"/>
					</radialGradient>
					<ellipse id="椭圆形_1_" class="st12" cx="173" cy="156" rx="7" ry="2"/>
					<defs>
						<filter id="Adobe_OpacityMaskFilter_5_" filterUnits="userSpaceOnUse" x="92" y="141" width="14" height="4">
							<feColorMatrix  type="matrix" values="1 0 0 0 0  0 1 0 0 0  0 0 1 0 0  0 0 0 1 0"/>
						</filter>
					</defs>
					<mask maskUnits="userSpaceOnUse" x="92" y="141" width="14" height="4" id="mask-5_4_">
						<g class="st13">
							<path id="path-4_5_" class="st1" d="M139.5,189.6c93.5-1,112.5-28,120.7-69.5c6.8-46.5-46-59.5-113.2-59.5
								c-39,0-48-28.4-74-45C37.7-7,0-12.4,0,50.1C0,171.6,62.5,190.5,139.5,189.6z"/>
						</g>
					</mask>
					
						<radialGradient id="椭圆形备份-12_1_" cx="-18.75" cy="209.4329" r="0.5" gradientTransform="matrix(2.449291e-16 4 14.8932 -9.119484e-16 -3020.1326 217.9992)" gradientUnits="userSpaceOnUse">
						<stop  offset="0" style="stop-color:#2FDDBD"/>
						<stop  offset="1" style="stop-color:#7BDECC"/>
					</radialGradient>
					<ellipse id="椭圆形备份-12" class="st14" cx="99" cy="143" rx="7" ry="2"/>
					<defs>
						<filter id="Adobe_OpacityMaskFilter_6_" filterUnits="userSpaceOnUse" x="55" y="129" width="11" height="17">
							<feColorMatrix  type="matrix" values="1 0 0 0 0  0 1 0 0 0  0 0 1 0 0  0 0 0 1 0"/>
						</filter>
					</defs>
					<mask maskUnits="userSpaceOnUse" x="55" y="129" width="11" height="17" id="mask-5_5_">
						<g class="st15">
							<path id="path-4_6_" class="st1" d="M139.5,189.6c93.5-1,112.5-28,120.7-69.5c6.8-46.5-46-59.5-113.2-59.5
								c-39,0-48-28.4-74-45C37.7-7,0-12.4,0,50.1C0,171.6,62.5,190.5,139.5,189.6z"/>
						</g>
					</mask>
					<g id="Fill-3_3_" class="st16">
						<g transform="translate(54.999913, 128.999237)">
							<g id="蒙版_3_">
								<path id="path-10_1_" class="st8" d="M5.7,0.1c0.1,0.1,0.1,0.1,0.1,0.2L11,14.6l0,0c0,0,0,0.1,0,0.1c0,0.3-0.5,0.6-1.4,0.9
									l-0.2,0.1l0,0l-0.2,0l0,0l-0.2,0c0,0-0.1,0-0.1,0l-0.3,0c0,0-0.1,0-0.1,0l-0.3,0l0,0l-0.3,0l0,0l-0.3,0c-0.1,0-0.1,0-0.2,0
									L7,16l0,0l-0.3,0c-0.1,0-0.1,0-0.2,0l-0.3,0l0,0l-0.3,0l0,0l-0.3,0l0,0l-0.3,0l0,0l-0.3,0l0,0l-0.3,0l0,0l-0.3,0l0,0l-0.3,0
									c-0.1,0-0.1,0-0.2,0l-0.3,0l0,0l-0.3,0l0,0l-0.3,0c0,0-0.1,0-0.1,0l-0.3,0c0,0-0.1,0-0.1,0l-0.3,0c0,0-0.1,0-0.1,0l-0.2,0
									l0,0l-0.2-0.1C0.5,15.4,0,15.1,0,14.7c0-0.1,0-0.1,0-0.1c0,0,0,0,0,0L5.2,0.3C5.3,0,5.5-0.1,5.7,0.1z"/>
							</g>
							<defs>
								<filter id="Adobe_OpacityMaskFilter_7_" filterUnits="userSpaceOnUse" x="5" y="0" width="6" height="17">
									<feColorMatrix  type="matrix" values="1 0 0 0 0  0 1 0 0 0  0 0 1 0 0  0 0 0 1 0"/>
								</filter>
							</defs>
							<mask maskUnits="userSpaceOnUse" x="5" y="0" width="6" height="17" id="mask-11_1_">
								<g class="st17">
									<path id="path-10_2_" class="st1" d="M5.7,0.1c0.1,0.1,0.1,0.1,0.1,0.2L11,14.6l0,0c0,0,0,0.1,0,0.1c0,0.3-0.5,0.6-1.4,0.9
										l-0.2,0.1l0,0l-0.2,0l0,0l-0.2,0c0,0-0.1,0-0.1,0l-0.3,0c0,0-0.1,0-0.1,0l-0.3,0l0,0l-0.3,0l0,0l-0.3,0c-0.1,0-0.1,0-0.2,0
										L7,16l0,0l-0.3,0c-0.1,0-0.1,0-0.2,0l-0.3,0l0,0l-0.3,0l0,0l-0.3,0l0,0l-0.3,0l0,0l-0.3,0l0,0l-0.3,0l0,0l-0.3,0l0,0
										l-0.3,0c-0.1,0-0.1,0-0.2,0l-0.3,0l0,0l-0.3,0l0,0l-0.3,0c0,0-0.1,0-0.1,0l-0.3,0c0,0-0.1,0-0.1,0l-0.3,0c0,0-0.1,0-0.1,0
										l-0.2,0l0,0l-0.2-0.1C0.5,15.4,0,15.1,0,14.7c0-0.1,0-0.1,0-0.1c0,0,0,0,0,0L5.2,0.3C5.3,0,5.5-0.1,5.7,0.1z"/>
								</g>
							</mask>
							<path id="Fill-3_2_" class="st18" d="M11,15.5L7,17C7,17,5,0,5,0.1C5.3,0,5.4,0,5.5,0.1C6.8,3.4,8.6,8.5,11,15.5z"/>
						</g>
					</g>
				</g>
			</g>
			<defs>
				<filter id="Adobe_OpacityMaskFilter_8_" filterUnits="userSpaceOnUse" x="72" y="29" width="176" height="166">
					<feColorMatrix  type="matrix" values="1 0 0 0 0  0 1 0 0 0  0 0 1 0 0  0 0 0 1 0"/>
				</filter>
			</defs>
			<mask maskUnits="userSpaceOnUse" x="72" y="29" width="176" height="166" id="mask-2_2_">
				<g class="st19">
					<rect id="path-1_2_" x="0.5" y="0.5" class="st1" width="300" height="300"/>
				</g>
			</mask>
			<g id="编组-2" class="st20">
				<g transform="translate(72.000000, 29.000000)">
					
						<linearGradient id="矩形备份-9_2_" gradientUnits="userSpaceOnUse" x1="-70.5501" y1="272.0123" x2="-70.5501" y2="271.0144" gradientTransform="matrix(19.962 0 0 -69.3418 1574.3235 18920.7988)">
						<stop  offset="0" style="stop-color:#9EDECA"/>
						<stop  offset="1" style="stop-color:#99DEC2"/>
					</linearGradient>
					<path id="矩形备份-9" class="st21" d="M166,58.8c5.5,0,10,4.5,10,10v48.9c0,5.8-4.7,10.5-10.5,10.5H156l0,0V68.8
						C156,63.3,160.5,58.8,166,58.8z"/>
					<path id="矩形备份-9_1_" class="st22" d="M164.4,58.8c4.6,0,8.4,3.8,8.4,8.4v50.4c0,5.8-4.7,10.5-10.5,10.5H156l0,0V67.2
						C156,62.6,159.8,58.8,164.4,58.8z"/>
					<path id="形状结合" class="st23" d="M164.9,58.8c-4.9,0-8.9,4-8.9,8.9l0,0v62.5l0.2,0l0,24.3c0,6.2-4.9,11.2-11.1,11.4
						l-0.3,0c-6.3,0-11.4-5.1-11.4-11.4l0,0V58.8H164.9z"/>
					<path id="矩形" class="st24" d="M28.4,0h82.2c13.9,0,25.2,11.3,25.2,25.2v130.2l0,0c0,6.4,4.8,9.6,14.4,9.6
						c-2.6,0.6-5.1,1-7.7,1c-27,0-67.5-1.2-121.4-3.6c-3.7-0.2-9.3-5.6-16.9-16.4V24.2C4.2,10.8,15,0,28.4,0z"/>
					
						<linearGradient id="形状结合_2_" gradientUnits="userSpaceOnUse" x1="-70.5071" y1="271.9818" x2="-70.5071" y2="271.0062" gradientTransform="matrix(141.2892 0 0 -161.7975 10032.5352 44014.1133)">
						<stop  offset="0" style="stop-color:#12CC98"/>
						<stop  offset="1" style="stop-color:#44E0C0"/>
					</linearGradient>
					<path id="形状结合_1_" class="st25" d="M107.2,4.2c13.3,0,24.2,10.8,24.2,24.2l0,0l0,30.5l0,0v95.8c0,5.8,4.3,10.6,10,11.3
						c-0.5,0.1-1,0.1-1.6,0.1l0,0H24.2C10.8,166,0,155.2,0,141.8l0,0V28.4C0,15,10.8,4.2,24.2,4.2l0,0H107.2z"/>
					<path id="矩形_1_" class="st1" d="M33.6,44.1h58.8c2.9,0,5.3,2.4,5.3,5.3v0c0,2.9-2.4,5.3-5.3,5.3H33.6
						c-2.9,0-5.3-2.4-5.3-5.3v0C28.4,46.5,30.7,44.1,33.6,44.1z"/>
					<path id="矩形备份-13" class="st1" d="M34.7,73.5h57.8c2.9,0,5.3,2.4,5.3,5.3l0,0c0,2.9-2.4,5.3-5.3,5.3H34.7
						c-2.9,0-5.3-2.4-5.3-5.3l0,0C29.4,75.9,31.8,73.5,34.7,73.5z"/>
					<path id="矩形备份-10" class="st1" d="M33.6,73.5h58.8c2.9,0,5.3,2.4,5.3,5.3l0,0c0,2.9-2.4,5.3-5.3,5.3H33.6
						c-2.9,0-5.3-2.4-5.3-5.3l0,0C28.4,75.9,30.7,73.5,33.6,73.5z"/>
					<path id="矩形备份-11" class="st1" d="M34.1,103h26.3c3.2,0,5.8,2.6,5.8,5.8l0,0c0,3.2-2.6,5.8-5.8,5.8H34.1
						c-3.2,0-5.8-2.6-5.8-5.8l0,0C28.4,105.5,31,103,34.1,103z"/>
				</g>
			</g>
		</g>
	</g>
</g>
</svg>
