<?xml version="1.0" encoding="utf-8"?>
<svg version="1.1" xmlns="http://www.w3.org/2000/svg" xmlns:xlink="http://www.w3.org/1999/xlink" x="0px" y="0px"
	 viewBox="0 0 24 24" style="enable-background:new 0 0 24 24;" xml:space="preserve">
<style type="text/css">
	.st0{fill-rule:evenodd;clip-rule:evenodd;}
</style>
<path class="st0" d="M12,4.1c-1.3,0-2.4,0.6-2.8,1.3C10,5.2,11,5.2,12,5.2c1,0,2,0.1,2.8,0.2C14.3,4.6,13.3,4.1,12,4.1z M12,2
	c2.6,0,4.9,1.6,5,3.8l0,0c1.2,0.5,2.2,1.2,2.8,2.3c0.3,0.4,0.1,1-0.3,1.2c-0.4,0.3-1,0.1-1.2-0.3c-0.9-1.5-2.8-2.2-6.3-2.2
	C8.6,6.9,6.7,7.6,5.8,9C5.5,9.5,4.9,9.6,4.5,9.3C4.1,9,4,8.5,4.2,8.1c0.7-1,1.5-1.7,2.7-2.2l0,0.2C7,3.8,9.3,2,12,2z M15.3,9.3
	c0.4,0,0.7,0.3,0.7,0.7l-0.5,6.4c0,0.4-0.4,0.7-0.8,0.7c-0.4,0-0.7-0.3-0.7-0.7l0.5-6.4C14.5,9.7,14.9,9.3,15.3,9.3z M9.5,10.1
	l0.5,6.4c0,0.4-0.3,0.8-0.7,0.8c-0.4,0-0.7-0.2-0.8-0.6L8,10.3c0-0.4,0.3-0.8,0.7-0.8C9.1,9.4,9.4,9.7,9.5,10.1z M12,9.3
	c0.4,0,0.7,0.3,0.7,0.6l0,0.1v7c0,0.4-0.3,0.8-0.8,0.8c-0.4,0-0.7-0.3-0.7-0.6l0-0.1v-7C11.2,9.6,11.6,9.3,12,9.3z M19,11.2
	c0.5,0,0.9,0.4,0.9,0.9c0,6.4-2.4,9.9-7.9,9.9s-7.9-3.5-7.9-9.9c0-0.5,0.4-0.9,0.9-0.9s0.9,0.4,0.9,0.9c0,5.5,1.8,8.1,6.1,8.1
	s6.1-2.6,6.1-8.1C18.1,11.6,18.5,11.2,19,11.2z"/>
</svg>
