<?xml version="1.0" encoding="utf-8"?>
<svg version="1.1" xmlns="http://www.w3.org/2000/svg" xmlns:xlink="http://www.w3.org/1999/xlink" x="0px" y="0px"
	 viewBox="0 0 24 24" style="enable-background:new 0 0 24 24;" xml:space="preserve">
<style type="text/css">
	.st0{fill-rule:evenodd;clip-rule:evenodd;}
</style>
<path class="st0" d="M11.5,4.5c-3.9,0-7,3.1-7,7s3.1,7,7,7s7-3.1,7-7S15.4,4.5,11.5,4.5z M11.5,2.5c5,0,9,4,9,9c0,2.1-0.7,4.1-2,5.6
	l2.7,2.7c0.4,0.4,0.4,1,0,1.4c-0.4,0.4-0.9,0.4-1.3,0.1l-0.1-0.1l-2.7-2.7c-1.5,1.2-3.5,2-5.6,2c-5,0-9-4-9-9S6.5,2.5,11.5,2.5z"/>
</svg>
