<?xml version="1.0" encoding="utf-8"?>
<!-- Generator: Adobe Illustrator 25.2.1, SVG Export Plug-In . SVG Version: 6.00 Build 0)  -->
<svg version="1.1" id="图层_1" xmlns="http://www.w3.org/2000/svg" xmlns:xlink="http://www.w3.org/1999/xlink" x="0px" y="0px"
	 viewBox="0 0 32 32" style="enable-background:new 0 0 32 32;" xml:space="preserve">
<style type="text/css">
	.st0{fill-rule:evenodd;clip-rule:evenodd;fill:#EF4444;}
	.st1{fill:#EF4444;}
</style>
<circle class="st0" cx="16" cy="9.5" r="1.5"/>
<path class="st0" d="M16,15c0.6,0,1,0.4,1,1v8c0,0.6-0.4,1-1,1s-1-0.4-1-1v-8C15,15.5,15.4,15,16,15z"/>
<path class="st1" d="M16,2C8.3,2,2,8.3,2,16s6.3,14,14,14s14-6.3,14-14S23.7,2,16,2z M16,0c8.8,0,16,7.2,16,16s-7.2,16-16,16
	S0,24.8,0,16S7.2,0,16,0z"/>
</svg>
