<?xml version="1.0" encoding="utf-8"?>
<!-- Generator: Adobe Illustrator 25.2.1, SVG Export Plug-In . SVG Version: 6.00 Build 0)  -->
<svg version="1.1" id="图层_1" xmlns="http://www.w3.org/2000/svg" xmlns:xlink="http://www.w3.org/1999/xlink" x="0px" y="0px"
	 viewBox="0 0 24 24" style="enable-background:new 0 0 24 24;" xml:space="preserve">
<style type="text/css">
	.st0{opacity:0.65;clip-path:url(#SVGID_2_);fill:#F9C416;}
</style>
<g>
	<defs>
		<path id="SVGID_1_" d="M12.4,2.5c0.2,0.1,0.4,0.3,0.5,0.5l2.4,5.4L21.1,9c0.5,0.1,1,0.5,0.9,1.1c0,0.3-0.1,0.5-0.3,0.7l-4.4,3.9
			l1.3,5.8c0.1,0.5-0.2,1.1-0.8,1.2c-0.2,0.1-0.5,0-0.7-0.1l-5.1-3l-5.1,3c-0.5,0.3-1.1,0.1-1.4-0.4c-0.1-0.2-0.2-0.5-0.1-0.7
			l1.3-5.8l-4.4-3.9c-0.4-0.4-0.5-1-0.1-1.4C2.4,9.1,2.6,9,2.9,9l5.9-0.6L11.1,3C11.3,2.5,11.9,2.3,12.4,2.5z"/>
	</defs>
	<use xlink:href="#SVGID_1_"  style="overflow:visible;fill-rule:evenodd;clip-rule:evenodd;fill:#F9C416;"/>
	<clipPath id="SVGID_2_">
		<use xlink:href="#SVGID_1_"  style="overflow:visible;"/>
	</clipPath>
	<rect x="-3" y="-2.6" class="st0" width="30.1" height="29.2"/>
</g>
</svg>
