<?xml version="1.0" encoding="utf-8"?>
<svg version="1.1" xmlns="http://www.w3.org/2000/svg" xmlns:xlink="http://www.w3.org/1999/xlink" x="0px" y="0px"
	 viewBox="0 0 24 24" style="enable-background:new 0 0 24 24;" xml:space="preserve">
<path d="M15.7,9.3c0.4,0.4,0.4,0.9,0.1,1.3l-0.1,0.1l-4,4c-0.4,0.4-0.9,0.4-1.3,0.1l-0.1-0.1l-2-2c-0.4-0.4-0.4-1,0-1.4
	c0.4-0.4,0.9-0.4,1.3-0.1l0.1,0.1l1.3,1.3l3.3-3.3C14.7,8.9,15.3,8.9,15.7,9.3z M11.1,4.4l-0.2,0.2l-0.6,0.5L9.4,6L7.8,6.1l-0.4,0
	l-0.2,0C6.5,6.2,6.3,6.4,6.2,7l0,0.2l0,0.3l0,0.3L6,9.4l-1.1,1.2l-0.2,0.3l-0.2,0.2c-0.6,0.8-0.6,1.1,0.1,1.9l0.2,0.3L6,14.6
	l0.1,1.6l0,0.4l0,0.2c0.1,0.7,0.3,0.9,1,1l0.2,0l0.4,0L9.4,18l1.3,1.2l0.3,0.2c0.8,0.7,1.2,0.7,1.9,0.1l0.2-0.2l0.4-0.4l1-1l1.6-0.1
	l0.3,0l0.2,0c0.8-0.1,1-0.3,1.1-1l0-0.2l0-0.4l0.1-1.6l1.2-1.3l0.2-0.3c0.7-0.8,0.7-1.2,0.1-1.9l-0.2-0.2l-0.2-0.3L18,9.4l-0.1-1.6
	l0-0.3c0,0,0-0.1,0-0.1l0-0.2c-0.1-0.7-0.3-0.9-1-1l-0.2,0l-0.4,0L14.6,6l-1.2-1.1l-0.3-0.2l-0.2-0.2C12.2,3.9,11.8,3.9,11.1,4.4z
	 M14.5,3.2l0.4,0.3l0.4,0.3C15.3,3.9,15.4,4,15.4,4l0.2,0l0.4,0c2.6,0.2,3.4,0.8,3.7,3l0,0.4c0,0.1,0,0.1,0,0.2l0,0.4l0,0.5L20.3,9
	c0.1,0.1,0.1,0.1,0.2,0.2l0.3,0.4c1.6,2,1.6,3,0,5l-0.3,0.4l-0.3,0.4c-0.1,0.1-0.1,0.1-0.2,0.2l0,0.2l0,0.4l0,0.4
	c-0.2,2.2-0.9,3-2.8,3.3l-0.4,0.1c-0.1,0-0.3,0-0.4,0l-0.4,0c-0.1,0-0.3,0-0.5,0L15,20.3l-0.4,0.3c-2.1,1.8-3.2,1.8-5.2,0.1
	l-0.4-0.3l-0.4-0.3C8.7,20.1,8.6,20,8.6,20l-0.2,0l-0.4,0l-0.4,0c-2.3-0.2-3.1-1-3.4-3.2l0-0.4l0-0.4l0-0.5L3.7,15l-0.3-0.4
	c-1.8-2.1-1.8-3.2-0.1-5.2l0.3-0.4l0.3-0.4C3.9,8.7,4,8.6,4,8.6l0-0.5l0-0.4C4.3,5.3,5,4.4,7.2,4.1l0.4,0l0.4,0l0.5,0l0.1,0l0.2-0.2
	l0.4-0.3l0.4-0.3C11.5,1.6,12.5,1.6,14.5,3.2z"/>
</svg>
