<?xml version="1.0" encoding="utf-8"?>
<!-- Generator: Adobe Illustrator 25.2.1, SVG Export Plug-In . SVG Version: 6.00 Build 0)  -->
<svg version="1.1" id="图层_1" xmlns="http://www.w3.org/2000/svg" xmlns:xlink="http://www.w3.org/1999/xlink" x="0px" y="0px"
	 viewBox="0 0 32 32" style="enable-background:new 0 0 32 32;" xml:space="preserve">
<style type="text/css">
	.st0{fill:#14B8A6;}
</style>
<path class="st0" d="M16,2C8.3,2,2,8.3,2,16s6.3,14,14,14s14-6.3,14-14S23.7,2,16,2z M16,0c8.8,0,16,7.2,16,16s-7.2,16-16,16
	S0,24.8,0,16S7.2,0,16,0z"/>
<path class="st0" d="M21.3,10.3c0.4-0.4,1-0.4,1.4-0.1c0.4,0.3,0.4,0.9,0.2,1.3l-0.1,0.1l-8,9c-0.4,0.4-1,0.4-1.4,0.1l-0.1-0.1l-4-4
	c-0.4-0.4-0.4-1,0-1.4c0.4-0.4,0.9-0.4,1.3-0.1l0.1,0.1l3.2,3.2L21.3,10.3z"/>
</svg>
