<?xml version="1.0" encoding="utf-8"?>
<svg version="1.1" xmlns="http://www.w3.org/2000/svg" xmlns:xlink="http://www.w3.org/1999/xlink" x="0px" y="0px"
	 viewBox="0 0 24 24" style="enable-background:new 0 0 24 24;" xml:space="preserve">
<style type="text/css">
	.st0{fill-rule:evenodd;clip-rule:evenodd;}
</style>
<path class="st0" d="M14.9,4.9c-0.4-0.4-1-0.4-1.4,0l-1,0.9l5.7,5.7l1-0.9c0.4-0.4,0.4-0.9,0.1-1.3l-0.1-0.1L14.9,4.9z M11.1,7.2
	l-6.2,6.2c-0.2,0.2-0.3,0.4-0.3,0.7v4.2c0,0.6,0.4,1,1,1h4.2c0.3,0,0.5-0.1,0.7-0.3l6.2-6.2L11.1,7.2z M12.1,3.5
	c1.2-1.2,3.1-1.2,4.2,0l4.2,4.2c1.2,1.2,1.2,3.1,0,4.2l-8.6,8.6c-0.6,0.6-1.3,0.9-2.1,0.9H5.6c-1.7,0-3-1.3-3-3v-4.2
	c0-0.8,0.3-1.6,0.9-2.1L12.1,3.5z"/>
</svg>
