<?xml version="1.0" encoding="utf-8"?>
<svg version="1.1" xmlns="http://www.w3.org/2000/svg" xmlns:xlink="http://www.w3.org/1999/xlink" x="0px" y="0px"
	 viewBox="0 0 24 24" style="enable-background:new 0 0 24 24;" xml:space="preserve">
<style type="text/css">
	.st0{fill-rule:evenodd;clip-rule:evenodd;}
</style>
<path class="st0" d="M12,2C6.5,2,2,6.5,2,12s4.5,10,10,10s10-4.5,10-10S17.5,2,12,2z M12,20c-4.4,0-8-3.6-8-8s3.6-8,8-8s8,3.6,8,8
	S16.4,20,12,20z"/>
<path class="st0" d="M12,7c0.6,0,1,0.4,1,1v3h3c0.6,0,1,0.4,1,1s-0.4,1-1,1h-3l0,3c0,0.6-0.4,1-1,1s-1-0.4-1-1l0-3H8
	c-0.6,0-1-0.4-1-1s0.4-1,1-1h3V8C11,7.4,11.4,7,12,7z"/>
</svg>
