<?xml version="1.0" encoding="utf-8"?>
<svg version="1.1" xmlns="http://www.w3.org/2000/svg" xmlns:xlink="http://www.w3.org/1999/xlink" x="0px" y="0px"
	 viewBox="0 0 24 24" style="enable-background:new 0 0 24 24;" xml:space="preserve">
<path d="M12,10.1c-1.1,0-2,0.9-2,2s0.9,2,2,2s2-0.9,2-2S13.1,10.1,12,10.1z M12,8.1c2.2,0,4,1.8,4,4s-1.8,4-4,4s-4-1.8-4-4
	S9.8,8.1,12,8.1z M12.5,4.5c-0.3-0.2-0.7-0.2-1,0L5.7,7.9C5.4,8.1,5.2,8.4,5.2,8.8v6.7c0,0.4,0.2,0.7,0.5,0.9l5.8,3.3
	c0.3,0.2,0.7,0.2,1,0l5.8-3.3c0.3-0.2,0.5-0.5,0.5-0.9V8.8c0-0.4-0.2-0.7-0.5-0.9L12.5,4.5z M10.5,2.8c0.9-0.5,2.1-0.5,3,0l5.8,3.3
	c0.9,0.5,1.5,1.5,1.5,2.6v6.7c0,1.1-0.6,2.1-1.5,2.6l-5.8,3.3c-0.9,0.5-2.1,0.5-3,0l-5.8-3.3c-0.9-0.5-1.5-1.5-1.5-2.6V8.8
	c0-1.1,0.6-2.1,1.5-2.6L10.5,2.8z"/>
</svg>
