<?xml version="1.0" encoding="utf-8"?>
<svg version="1.1" xmlns="http://www.w3.org/2000/svg" xmlns:xlink="http://www.w3.org/1999/xlink" x="0px" y="0px"
	 viewBox="0 0 24 24" style="enable-background:new 0 0 24 24;" xml:space="preserve">
<style type="text/css">
	.st0{fill-rule:evenodd;clip-rule:evenodd;}
</style>
<path class="st0" d="M12,6.5c0.5,0,0.9,0.4,1,0.9l0,0.1v4h3c0.5,0,0.9,0.4,1,0.9l0,0.1c0,0.5-0.4,0.9-0.9,1l-0.1,0h-4
	c-0.5,0-0.9-0.4-1-0.9l0-0.1v-5C11,6.9,11.4,6.5,12,6.5z M12,4c-4.4,0-8,3.6-8,8s3.6,8,8,8s8-3.6,8-8S16.4,4,12,4z M12,2
	c5.5,0,10,4.5,10,10s-4.5,10-10,10S2,17.5,2,12S6.5,2,12,2z"/>
</svg>
