<?xml version="1.0" encoding="utf-8"?>
<svg version="1.1" xmlns="http://www.w3.org/2000/svg" xmlns:xlink="http://www.w3.org/1999/xlink" x="0px" y="0px"
	 viewBox="0 0 24 24" style="enable-background:new 0 0 24 24;" xml:space="preserve">
<path d="M17.2,9c0.5,0.1,0.9,0.7,0.7,1.2c-0.8,3.1-2,4.8-4,4.8c-1.2,0-1.8-0.5-2.7-1.7L11,12.7c-0.4-0.6-0.6-0.7-1-0.7
	c-0.8,0-1.5,0.7-2.1,2.3c-0.2,0.5-0.7,0.8-1.3,0.6c-0.5-0.2-0.8-0.7-0.6-1.3C6.8,11.3,8.2,10,10,10c1.2,0,1.8,0.5,2.7,1.7l0.4,0.5
	c0.4,0.6,0.6,0.7,1,0.7c0.7,0,1.5-1,2-3.2C16.2,9.2,16.7,8.9,17.2,9z M12,4c-5.8,0-7.9,2-8,7.7L4,12c0,5.9,2.1,8,8,8s8-2.1,8-8
	c0-5.8-2-7.9-7.7-8L12,4z M12,2c7,0,10,3,10,10s-3,10-10,10S2,19,2,12S5,2,12,2z"/>
</svg>
