<?xml version="1.0" encoding="utf-8"?>
<svg version="1.1" xmlns="http://www.w3.org/2000/svg" xmlns:xlink="http://www.w3.org/1999/xlink" x="0px" y="0px"
	 viewBox="0 0 24 24" style="enable-background:new 0 0 24 24;" xml:space="preserve">
<style type="text/css">
	.st0{fill-rule:evenodd;clip-rule:evenodd;}
</style>
<path class="st0" d="M19.1,4.9c2.4,2.4,3.4,5.7,2.7,9c-0.1,0.5-0.6,0.9-1.2,0.8s-0.9-0.6-0.8-1.2c0.5-2.6-0.3-5.3-2.2-7.2
	c-2.9-2.9-7.4-3.1-10.6-0.7l2.1,2.1c0.4,0.4,0.4,1,0,1.4C8.8,9.5,8.2,9.6,7.9,9.3L7.8,9.2L4.9,6.3C4.8,6.2,4.7,6.1,4.7,6
	c-0.1-0.4,0-0.8,0.2-1C8.8,1,15.2,1,19.1,4.9z M3.4,9.3c0.5,0.1,0.9,0.6,0.8,1.2c-0.5,2.6,0.3,5.3,2.2,7.2c2.9,2.9,7.4,3.1,10.6,0.7
	l-2.1-2.1c-0.4-0.4-0.4-1,0-1.4c0.4-0.4,0.9-0.4,1.3-0.1l0.1,0.1l2.8,2.8c0.4,0.4,0.4,1,0,1.4C15.2,23,8.8,23,4.9,19.1
	c-2.4-2.4-3.4-5.8-2.7-9C2.3,9.5,2.8,9.2,3.4,9.3z"/>
</svg>
