<?xml version="1.0" encoding="utf-8"?>
<!-- Generator: Adobe Illustrator 25.2.1, SVG Export Plug-In . SVG Version: 6.00 Build 0)  -->
<svg version="1.1" id="图层_1" xmlns="http://www.w3.org/2000/svg" xmlns:xlink="http://www.w3.org/1999/xlink" x="0px" y="0px"
	 viewBox="0 0 183 87" style="enable-background:new 0 0 183 87;" xml:space="preserve">
<style type="text/css">
	.st0{clip-path:url(#SVGID_2_);}
	.st1{clip-path:url(#SVGID_4_);}
</style>
<g>
	<defs>
		<path id="SVGID_1_" d="M71.9,13h-22v6h22V13z M160.9,25v8h-14v-8H160.9z M71.9,29h-22v6h22V29z M19.9,0.5c0,2.7-0.2,5.4-0.5,8
			l16,0v10l-18,0C14.3,28.6,8.4,35.8,0.3,36l-0.4,0V26c1.5,0,3-1.1,4.4-3.1l0.3-0.4c0-0.1,0.1-0.1,0.1-0.2l0.3-0.5
			c0.1-0.2,0.3-0.5,0.4-0.7l0.3-0.5c0.2-0.4,0.4-0.9,0.6-1.4l0.2-0.6c0.1-0.2,0.2-0.4,0.2-0.6l0.2-0.6c0.1-0.2,0.2-0.4,0.2-0.6
			l0.2-0.6l0.2-0.7L8,14.8c0-0.1,0.1-0.2,0.1-0.3l0.2-0.7l0.2-0.7c0.1-0.2,0.1-0.5,0.2-0.7l0.2-0.7c0-0.1,0.1-0.3,0.1-0.4L9,10.5
			l0.1-0.8l0.1-0.8c0.1-0.4,0.1-0.8,0.2-1.2l0.1-0.8l0.1-0.8c0-0.1,0-0.3,0-0.4l0.1-0.8L9.8,4c0.1-1,0.1-2,0.1-3l0-0.4H19.9z
			 M168.9,18h-29v23h29V18z M35.9,28v10h-12v8h12v10h-12v15.5c0,2.7,2.1,4.9,4.8,5l0.2,0h7v10h-7c-8.2,0-14.8-6.5-15-14.7l0-0.3V56
			h-11V46h11V28H35.9z M147.4,0l1.7,8h10.2l1.7-8h10l-1.7,8h9.7v43h-20v10h24v10h-24l0,16h-10l0-16h-22V61h22V51h-19v0v0V11v0V8h9.2
			l-1.7-8H147.4z M122.9,3L122.9,3L122.9,3v10h0v9h0v10h-16v11h16v5.7l0,2.4c0,0.2,0,0.4,0,0.6l0,1.2c0,0.2,0,0.4,0,0.6l0,1.1
			c-0.1,3.7-0.4,6.7-1,10c-2.8,13.6-11.2,22.2-26.5,22.4L95,87V77c10.3,0,15.2-4.9,17.1-14.4c0.3-1.5,0.5-2.9,0.6-4.4l0.1-0.8
			c0-0.6,0.1-1.2,0.1-1.8l0-0.9l0-1l0-0.7h-16v0v0V25v0v-3h16v-9h-18V3h18h0H122.9z M49.9,3L49.9,3h22h0h10h0h0v10h0v6h0v10h0v6h0
			v10l-15.7,0c0.5,5.1,1.7,10.7,3.5,15.7c0.3-0.4,0.7-0.8,1-1.2c1.9-2.5,3.2-5.4,3.3-6.8l0-0.1h10c0,2.6-0.9,5.6-2.4,8.5l-0.3,0.6
			l-0.2,0.3l-0.3,0.6c-0.4,0.6-0.7,1.2-1.1,1.7l-0.4,0.6c-0.5,0.7-1.1,1.5-1.7,2.2L77,67.5L76.5,68c-0.7,0.7-1.5,1.4-2.2,2
			c3.2,4.5,6.9,6.9,11.3,7l0.3,0v10c-11,0-19.1-7.3-24.2-19.2c-3-6.9-4.9-15.4-5.6-22.8l-6.2,0l0,42h-10V3H49.9z"/>
	</defs>
	<clipPath id="SVGID_2_">
		<use xlink:href="#SVGID_1_"  style="overflow:visible;"/>
	</clipPath>
	<g class="st0">
		<defs>
			<rect id="SVGID_3_" x="-997.1" y="-349" width="1440" height="1587"/>
		</defs>
		<clipPath id="SVGID_4_">
			<use xlink:href="#SVGID_3_"  style="overflow:visible;"/>
		</clipPath>
		<rect x="-5.1" y="-5" class="st1" width="193" height="97"/>
	</g>
</g>
</svg>
