<svg width="300px" height="300px" viewBox="0 0 300 300" version="1.1" xmlns="http://www.w3.org/2000/svg" xmlns:xlink="http://www.w3.org/1999/xlink">
    <title>页面为空</title>
    <defs>
        <rect id="path-1" x="0" y="0" width="300" height="300"></rect>
        <linearGradient x1="50%" y1="1.0708042%" x2="50%" y2="99.470331%" id="linearGradient-3">
            <stop stop-color="#108BFE" stop-opacity="0.298623252" offset="0%"></stop>
            <stop stop-color="#108BFE" stop-opacity="0.101480551" offset="100%"></stop>
        </linearGradient>
        <path d="M139.5,189.633112 C233,188.633112 252,161.633112 260.216168,120.092239 C267,73.6331123 214.225405,60.6331123 147,60.6331123 C108,60.6331123 98.9919645,32.2729492 73,15.6331123 C37.685387,-6.97500566 0,-12.3664704 0,50.1331123 C0,171.633112 62.465226,190.457014 139.5,189.633112 Z" id="path-4"></path>
        <radialGradient cx="51.1852257%" cy="0%" fx="51.1852257%" fy="0%" r="106.18537%" gradientTransform="translate(0.511852,0.000000),scale(0.602899,1.000000),rotate(-90.000000),translate(-0.511852,-0.000000)" id="radialGradient-6">
            <stop stop-color="#108BFE" stop-opacity="0.618635271" offset="0%"></stop>
            <stop stop-color="#FFFFFF" stop-opacity="0.0420673077" offset="100%"></stop>
        </radialGradient>
        <path d="M11.3554056,0.178907878 C11.4700141,0.301608133 11.5648517,0.480793226 11.6296877,0.697476655 L22.0000866,34.6578765 L21.9233636,34.6583567 C21.974028,34.774682 22.0000866,34.893055 22.0000866,35.0130811 C22.0000866,35.7914072 20.9043079,36.50022 19.1089042,37.0319213 L18.6647774,37.1560739 L18.6647774,37.1560739 L18.1950019,37.273095 L18.1950019,37.273095 L17.7007948,37.3826538 C17.6164586,37.4002734 17.5311551,37.4175683 17.4449097,37.4345317 L16.916337,37.5322775 C16.8264253,37.547887 16.7356224,37.563151 16.6439537,37.5780629 L16.0837536,37.663252 L16.0837536,37.663252 L15.5039898,37.7396568 L15.5039898,37.7396568 L14.9058793,37.8069467 C14.804733,37.8173837 14.7028729,37.8274272 14.6003244,37.8370703 L13.9769757,37.8900681 L13.9769757,37.8900681 L13.3383227,37.9331247 C13.2306728,37.939454 13.1224359,37.9453553 13.0136374,37.9508217 L12.35431,37.9783467 L12.35431,37.9783467 L11.6827207,37.995104 L11.6827207,37.995104 L11.0000866,38.0007633 L11.0000866,38.0007633 L10.3174525,37.995104 L10.3174525,37.995104 L9.64586326,37.9783467 L9.64586326,37.9783467 L8.98653577,37.9508217 L8.98653577,37.9508217 L8.34068706,37.9128597 L8.34068706,37.9128597 L7.7095341,37.8647912 C7.6056342,37.8559559 7.50239733,37.8467133 7.39984884,37.8370703 L6.79302137,37.7744618 L6.79302137,37.7744618 L6.20393211,37.7025731 L6.20393211,37.7025731 L5.63379806,37.6217348 C5.54042292,37.6075344 5.4478883,37.5929747 5.35621954,37.5780629 L4.81680013,37.48442 C4.72869623,37.4681267 4.6415089,37.451495 4.55526349,37.4345317 L4.04929695,37.3288278 C3.96692065,37.3105657 3.88553698,37.2919858 3.80517129,37.273095 L3.33539583,37.1560739 L3.33539583,37.1560739 L2.89126897,37.0319213 C1.0958653,36.50022 0,35.7914072 0,35.0130811 C0,34.893055 0.0261451983,34.774682 0.0768095757,34.6583567 C0.0544798368,34.6585103 0.0271143888,34.654357 0,34.6454571 L10.3662953,0.697476655 C10.5636906,0.0379331162 11.0064962,-0.19429551 11.3554056,0.178907878 Z" id="path-7"></path>
        <radialGradient cx="50%" cy="50%" fx="50%" fy="50%" r="50%" gradientTransform="translate(0.500000,0.500000),scale(0.285714,1.000000),rotate(90.000000),scale(1.000000,3.723312),translate(-0.500000,-0.500000)" id="radialGradient-9">
            <stop stop-color="#108BFE" offset="0%"></stop>
            <stop stop-color="#78BEFF" offset="100%"></stop>
        </radialGradient>
        <path d="M5.67776707,0.0757715313 C5.73507109,0.127434797 5.7824897,0.202881151 5.81490759,0.29411628 L11.0000866,14.593232 L10.9617253,14.5934342 C10.9870574,14.6424133 11.0000866,14.6922545 11.0000866,14.7427918 C11.0000866,15.0705081 10.4521994,15.3689556 9.55450112,15.5928298 L9.33243857,15.6451046 L9.33243857,15.6451046 L9.09755176,15.6943766 L9.09755176,15.6943766 L8.85044918,15.7405067 C8.80828125,15.7479254 8.76562967,15.7552075 8.72250714,15.76235 L8.45822183,15.8035061 C8.41326616,15.8100785 8.36786489,15.8165055 8.32203069,15.8227842 L8.04193175,15.8586533 L8.04193175,15.8586533 L7.752051,15.8908237 L7.752051,15.8908237 L7.45299694,15.9191563 C7.40242395,15.9235508 7.3514941,15.9277797 7.30022006,15.9318399 L6.98854693,15.9541548 L6.98854693,15.9541548 L6.66922171,15.9722839 C6.61539697,15.9749488 6.56127875,15.9774336 6.50687972,15.9797352 L6.17721727,15.9913247 L6.17721727,15.9913247 L5.84142396,15.9983804 L5.84142396,15.9983804 L5.50010826,16.0007633 L5.50010826,16.0007633 L5.15879257,15.9983804 L5.15879257,15.9983804 L4.82299925,15.9913247 L4.82299925,15.9913247 L4.49333681,15.9797352 L4.49333681,15.9797352 L4.17041372,15.9637512 L4.17041372,15.9637512 L3.85483848,15.9435119 C3.80288874,15.9397918 3.75127051,15.9359001 3.69999646,15.9318399 L3.39658392,15.9054784 L3.39658392,15.9054784 L3.10204045,15.8752095 L3.10204045,15.8752095 L2.81697455,15.8411724 C2.77028717,15.8351932 2.72402004,15.8290628 2.67818583,15.8227842 L2.40847719,15.7833556 C2.36442542,15.7764953 2.32083192,15.7694924 2.27770939,15.76235 L2.02472711,15.7178431 C1.98353912,15.7101538 1.94284745,15.7023307 1.90266477,15.6943766 L1.66777796,15.6451046 L1.66777796,15.6451046 L1.44571541,15.5928298 C0.548017103,15.3689556 8.66096871e-05,15.0705081 8.66096871e-05,14.7427918 C8.66096871e-05,14.6922545 0.0131591574,14.6424133 0.0384912463,14.5934342 C0.0273264209,14.5934989 0.0136437507,14.5917501 8.66096871e-05,14.5880028 L5.18321386,0.29411628 C5.2819111,0.016413737 5.50331302,-0.0813667373 5.67776707,0.0757715313 Z" id="path-10"></path>
        <linearGradient x1="50%" y1="7.99635544%" x2="50%" y2="80.3191676%" id="linearGradient-12">
            <stop stop-color="#50BDFF" offset="0%"></stop>
            <stop stop-color="#0055D3" offset="100%"></stop>
        </linearGradient>
        <linearGradient x1="50%" y1="7.99635544%" x2="50%" y2="80.3191676%" id="linearGradient-13">
            <stop stop-color="#50BDFF" offset="0%"></stop>
            <stop stop-color="#005FEC" offset="100%"></stop>
        </linearGradient>
        <linearGradient x1="50%" y1="7.99635544%" x2="50%" y2="80.3191676%" id="linearGradient-14">
            <stop stop-color="#50BDFF" offset="0%"></stop>
            <stop stop-color="#005FEC" offset="100%"></stop>
        </linearGradient>
        <linearGradient x1="50%" y1="2.43662587%" x2="50%" y2="100%" id="linearGradient-15">
            <stop stop-color="#07C8FF" offset="0%"></stop>
            <stop stop-color="#108BFE" offset="100%"></stop>
        </linearGradient>
        <linearGradient x1="50%" y1="0.420327368%" x2="50%" y2="100%" id="linearGradient-16">
            <stop stop-color="#F0FCFF" offset="0%"></stop>
            <stop stop-color="#8AD1FF" offset="100%"></stop>
        </linearGradient>
    </defs>
    <g id="页面-1" stroke="none" stroke-width="1" fill="none" fill-rule="evenodd">
        <g id="画板备份-2" transform="translate(-185.000000, -731.000000)">
            <g id="页面为空" transform="translate(185.000000, 731.000000)">
                <mask id="mask-2" fill="white">
                    <use xlink:href="#path-1"></use>
                </mask>
                <g id="蒙版"></g>
                <g id="椭圆形备份-4" mask="url(#mask-2)">
                    <g transform="translate(20.000000, 90.000000)">
                        <mask id="mask-5" fill="white">
                            <use xlink:href="#path-4"></use>
                        </mask>
                        <use id="蒙版" stroke="none" fill="url(#linearGradient-3)" fill-rule="evenodd" xlink:href="#path-4"></use>
                        <ellipse id="椭圆形" stroke="none" fill="url(#radialGradient-6)" fill-rule="evenodd" mask="url(#mask-5)" cx="130.5" cy="236.5" rx="172.5" ry="104"></ellipse>
                        <g id="Fill-3" stroke="none" stroke-width="1" fill="none" fill-rule="evenodd" mask="url(#mask-5)">
                            <g transform="translate(195.999913, 115.999237)">
                                <mask id="mask-8" fill="white">
                                    <use xlink:href="#path-7"></use>
                                </mask>
                                <use id="蒙版" stroke="none" fill="#78BEFF" fill-rule="evenodd" xlink:href="#path-7"></use>
                                <path d="M23.0000866,35.4777513 L15.0000866,39.0007633 C14.9725956,39.0014629 10.9352506,0.0347073353 11.0000866,0.247631123 C11.5546366,-0.0815260018 11.8879699,-0.0815260018 12.0000866,0.247631123 C14.5546366,7.74738959 18.2213032,19.490763 23.0000866,35.4777513 Z" id="Fill-3" stroke="none" fill="#108BFE" fill-rule="evenodd" mask="url(#mask-8)"></path>
                            </g>
                        </g>
                        <ellipse id="椭圆形" stroke="none" fill="url(#radialGradient-9)" fill-rule="evenodd" mask="url(#mask-5)" cx="172.999913" cy="155.999237" rx="7" ry="2"></ellipse>
                        <ellipse id="椭圆形备份-12" stroke="none" fill="url(#radialGradient-9)" fill-rule="evenodd" mask="url(#mask-5)" cx="98.9999134" cy="142.999237" rx="7" ry="2"></ellipse>
                        <g id="Fill-3" stroke="none" stroke-width="1" fill="none" fill-rule="evenodd" mask="url(#mask-5)">
                            <g transform="translate(54.999913, 128.999237)">
                                <mask id="mask-11" fill="white">
                                    <use xlink:href="#path-10"></use>
                                </mask>
                                <use id="蒙版" stroke="none" fill="#78BEFF" fill-rule="evenodd" xlink:href="#path-10"></use>
                                <path d="M11.0000866,15.4650914 L7.00034413,17.0007633 C6.98659953,17.0010683 4.96805697,0.0155594063 5.00047289,0.108372339 C5.27773001,-0.0351064073 5.44438595,-0.0351064073 5.5004407,0.108372339 C6.77763344,3.37749782 8.61084875,8.49640417 11.0000866,15.4650914 Z" id="Fill-3" stroke="none" fill="#108BFE" fill-rule="evenodd" mask="url(#mask-11)"></path>
                            </g>
                        </g>
                    </g>
                </g>
                <g id="编组-11" mask="url(#mask-2)">
                    <g transform="translate(70.000000, 8.000000)">
                        <polygon id="路径-24" stroke="none" fill="url(#linearGradient-12)" fill-rule="evenodd" points="35 66.5 0 83.6666667 0 106.333333 169 109 169 83.6666667 142 66.5"></polygon>
                        <polygon id="路径-34" stroke="none" fill="url(#linearGradient-13)" fill-rule="evenodd" points="35 67.5 35 84.5 1 84.5"></polygon>
                        <polygon id="路径-34备份" stroke="none" fill="url(#linearGradient-14)" fill-rule="evenodd" transform="translate(155.000000, 76.500000) scale(-1, 1) translate(-155.000000, -76.500000) " points="168 67.5 168 85.5 142 85.5"></polygon>
                        <path d="M61,99 C61,101.209139 62.790861,103 65,103 L100,103 C102.209139,103 104,101.209139 104,99 L104,85 L169,85 L169,167 C169,172.522847 164.522847,177 159,177 L10,177 C4.4771525,177 2.45271059e-15,172.522847 0,167 L0,85 L61,85 L61,99 Z" id="形状结合" stroke="none" fill="url(#linearGradient-15)" fill-rule="evenodd"></path>
                        <path d="M35,66.5 L0,84.5 L60.2635659,85 L59.8807292,98.8897921 C59.8198631,101.098092 61.5607025,102.937615 63.7690028,102.998481 C63.8057301,102.999494 63.8424695,103 63.8792107,103 L99.1087307,103 C101.274947,103 103.047529,101.275602 103.107212,99.1102079 L103.496124,85 L103.496124,85 L169,84.5 L142,66.5 L35,66.5 Z" id="路径-25" stroke="url(#linearGradient-16)" stroke-width="2" fill="none" stroke-linejoin="round"></path>
                        <path d="M74,82 C100,60.3333333 107.333333,47.5 96,43.5 C84.5455352,39.4572477 79.3866357,54.7313228 87,58.5 C91.3844197,60.6703234 101.422156,60.0197937 108,56 C120,48.6666667 130.666667,40.5 140,31.5" id="路径-4" stroke="#44BAFF" stroke-width="2" fill="none" stroke-linecap="round" stroke-linejoin="round" stroke-dasharray="5"></path>
                        <g id="编组-9" stroke="none" stroke-width="1" fill="none" fill-rule="evenodd" transform="translate(127.000000, 0.000000)">
                            <polygon id="路径-5" fill="#42CEFF" points="0 10 55 0 39 36"></polygon>
                            <polygon id="路径-26" fill="#1269C6" points="15 20 16 35 54 1"></polygon>
                        </g>
                        <g id="编组-6" stroke="none" stroke-width="1" fill="none" fill-rule="evenodd" transform="translate(56.000000, 36.500000) scale(-1, 1) translate(-56.000000, -36.500000) translate(43.000000, 28.000000)">
                            <polygon id="路径-5" fill="#42CEFF" points="0 4.72222222 26 0 18.4363636 17"></polygon>
                            <polygon id="路径-26" fill="#1269C6" points="7 9.94117647 7.46153846 17 25 1"></polygon>
                        </g>
                    </g>
                </g>
            </g>
        </g>
    </g>
</svg>