<?xml version="1.0" encoding="utf-8"?>
<!-- Generator: Adobe Illustrator 25.2.1, SVG Export Plug-In . SVG Version: 6.00 Build 0)  -->
<svg version="1.1" id="图层_1" xmlns="http://www.w3.org/2000/svg" xmlns:xlink="http://www.w3.org/1999/xlink" x="0px" y="0px"
	 viewBox="0 0 300 300" style="enable-background:new 0 0 300 300;" xml:space="preserve">
<style type="text/css">
	.st0{filter:url(#Adobe_OpacityMaskFilter);}
	.st1{fill-rule:evenodd;clip-rule:evenodd;fill:#FFFFFF;}
	.st2{mask:url(#mask-2_1_);}
	.st3{fill-rule:evenodd;clip-rule:evenodd;fill:url(#path-4_7_);}
	.st4{filter:url(#Adobe_OpacityMaskFilter_1_);}
	.st5{mask:url(#mask-5_1_);fill-rule:evenodd;clip-rule:evenodd;fill:url(#椭圆形_2_);}
	.st6{filter:url(#Adobe_OpacityMaskFilter_2_);}
	.st7{mask:url(#mask-5_2_);}
	.st8{fill-rule:evenodd;clip-rule:evenodd;fill:#FFCB78;}
	.st9{filter:url(#Adobe_OpacityMaskFilter_3_);}
	.st10{mask:url(#mask-8_1_);fill-rule:evenodd;clip-rule:evenodd;fill:#FEA210;}
	.st11{filter:url(#Adobe_OpacityMaskFilter_4_);}
	.st12{mask:url(#mask-5_3_);fill-rule:evenodd;clip-rule:evenodd;fill:url(#椭圆形_3_);}
	.st13{filter:url(#Adobe_OpacityMaskFilter_5_);}
	.st14{mask:url(#mask-5_4_);fill-rule:evenodd;clip-rule:evenodd;fill:url(#椭圆形备份-12_1_);}
	.st15{filter:url(#Adobe_OpacityMaskFilter_6_);}
	.st16{mask:url(#mask-5_5_);}
	.st17{filter:url(#Adobe_OpacityMaskFilter_7_);}
	.st18{mask:url(#mask-11_1_);fill-rule:evenodd;clip-rule:evenodd;fill:#FEA210;}
	.st19{filter:url(#Adobe_OpacityMaskFilter_8_);}
	.st20{mask:url(#mask-2_2_);}
	.st21{fill-rule:evenodd;clip-rule:evenodd;fill:url(#路径-24_1_);}
	.st22{fill-rule:evenodd;clip-rule:evenodd;fill:url(#路径-34_1_);}
	.st23{fill-rule:evenodd;clip-rule:evenodd;fill:url(#路径-34备份_1_);}
	.st24{fill-rule:evenodd;clip-rule:evenodd;fill:url(#形状结合_1_);}
	.st25{fill:none;stroke:#FFEBD7;stroke-width:2;stroke-linejoin:round;}
	.st26{fill:none;stroke:#FFB144;stroke-width:2;stroke-linecap:round;stroke-linejoin:round;stroke-dasharray:5;}
	.st27{fill-rule:evenodd;clip-rule:evenodd;fill:#FFA15A;}
	.st28{fill-rule:evenodd;clip-rule:evenodd;fill:#ED7626;}
</style>
<g id="页面-1">
	<g id="画板备份-2" transform="translate(-185.000000, -731.000000)">
		<g id="页面为空" transform="translate(185.000000, 731.000000)">
			<g id="蒙版">
			</g>
			<defs>
				<filter id="Adobe_OpacityMaskFilter" filterUnits="userSpaceOnUse" x="-22" y="90" width="345" height="340.5">
					<feColorMatrix  type="matrix" values="1 0 0 0 0  0 1 0 0 0  0 0 1 0 0  0 0 0 1 0"/>
				</filter>
			</defs>
			<mask maskUnits="userSpaceOnUse" x="-22" y="90" width="345" height="340.5" id="mask-2_1_">
				<g class="st0">
					<rect id="path-1_1_" class="st1" width="300" height="300"/>
				</g>
			</mask>
			<g id="椭圆形备份-4" class="st2">
				<g transform="translate(20.000000, 90.000000)">
					<g id="蒙版_1_">
						
							<linearGradient id="path-4_7_" gradientUnits="userSpaceOnUse" x1="117.9709" y1="72.7169" x2="117.9709" y2="71.7329" gradientTransform="matrix(260.8043 0 0 -189.6583 -30636.9062 13793.3945)">
							<stop  offset="0" style="stop-color:#FEA210;stop-opacity:0.2986"/>
							<stop  offset="1" style="stop-color:#FEA210;stop-opacity:0.1015"/>
						</linearGradient>
						<path id="path-4_1_" class="st3" d="M139.5,189.6c93.5-1,112.5-28,120.7-69.5c6.8-46.5-46-59.5-113.2-59.5
							c-39,0-48-28.4-74-45C37.7-7,0-12.4,0,50.1C0,171.6,62.5,190.5,139.5,189.6z"/>
					</g>
					<defs>
						<filter id="Adobe_OpacityMaskFilter_1_" filterUnits="userSpaceOnUse" x="-42" y="132.5" width="345" height="208">
							<feColorMatrix  type="matrix" values="1 0 0 0 0  0 1 0 0 0  0 0 1 0 0  0 0 0 1 0"/>
						</filter>
					</defs>
					<mask maskUnits="userSpaceOnUse" x="-42" y="132.5" width="345" height="208" id="mask-5_1_">
						<g class="st4">
							<path id="path-4_2_" class="st1" d="M139.5,189.6c93.5-1,112.5-28,120.7-69.5c6.8-46.5-46-59.5-113.2-59.5
								c-39,0-48-28.4-74-45C37.7-7,0-12.4,0,50.1C0,171.6,62.5,190.5,139.5,189.6z"/>
						</g>
					</mask>
					
						<radialGradient id="椭圆形_2_" cx="119.1753" cy="72.6635" r="1.0619" gradientTransform="matrix(1.273634e-14 -208 -208.0002 -1.273633e-14 15248.5996 24920.9648)" gradientUnits="userSpaceOnUse">
						<stop  offset="0" style="stop-color:#FEA210;stop-opacity:0.6186"/>
						<stop  offset="1" style="stop-color:#FFFFFF;stop-opacity:4.206731e-02"/>
					</radialGradient>
					<ellipse id="椭圆形" class="st5" cx="130.5" cy="236.5" rx="172.5" ry="104"/>
					<defs>
						<filter id="Adobe_OpacityMaskFilter_2_" filterUnits="userSpaceOnUse" x="196" y="116" width="23" height="39">
							<feColorMatrix  type="matrix" values="1 0 0 0 0  0 1 0 0 0  0 0 1 0 0  0 0 0 1 0"/>
						</filter>
					</defs>
					<mask maskUnits="userSpaceOnUse" x="196" y="116" width="23" height="39" id="mask-5_2_">
						<g class="st6">
							<path id="path-4_3_" class="st1" d="M139.5,189.6c93.5-1,112.5-28,120.7-69.5c6.8-46.5-46-59.5-113.2-59.5
								c-39,0-48-28.4-74-45C37.7-7,0-12.4,0,50.1C0,171.6,62.5,190.5,139.5,189.6z"/>
						</g>
					</mask>
					<g id="Fill-3_1_" class="st7">
						<g transform="translate(195.999913, 115.999237)">
							<g id="蒙版_2_">
								<path id="path-7_1_" class="st8" d="M11.4,0.2c0.1,0.1,0.2,0.3,0.3,0.5l10.4,34l-0.1,0C22,34.8,22,34.9,22,35
									c0,0.8-1.1,1.5-2.9,2l-0.4,0.1l0,0l-0.5,0.1l0,0l-0.5,0.1c-0.1,0-0.2,0-0.3,0.1l-0.5,0.1c-0.1,0-0.2,0-0.3,0l-0.6,0.1l0,0
									l-0.6,0.1l0,0l-0.6,0.1c-0.1,0-0.2,0-0.3,0L14,37.9l0,0l-0.6,0c-0.1,0-0.2,0-0.3,0l-0.7,0l0,0l-0.7,0l0,0L11,38l0,0l-0.7,0
									l0,0l-0.7,0l0,0L9,38l0,0l-0.6,0l0,0l-0.6,0c-0.1,0-0.2,0-0.3,0l-0.6-0.1l0,0l-0.6-0.1l0,0l-0.6-0.1c-0.1,0-0.2,0-0.3,0
									l-0.5-0.1c-0.1,0-0.2,0-0.3,0L4,37.3c-0.1,0-0.2,0-0.2-0.1l-0.5-0.1l0,0L2.9,37C1.1,36.5,0,35.8,0,35c0-0.1,0-0.2,0.1-0.4
									c0,0,0,0-0.1,0L10.4,0.7C10.6,0,11-0.2,11.4,0.2z"/>
							</g>
							<defs>
								<filter id="Adobe_OpacityMaskFilter_3_" filterUnits="userSpaceOnUse" x="11" y="0" width="12" height="39">
									<feColorMatrix  type="matrix" values="1 0 0 0 0  0 1 0 0 0  0 0 1 0 0  0 0 0 1 0"/>
								</filter>
							</defs>
							<mask maskUnits="userSpaceOnUse" x="11" y="0" width="12" height="39" id="mask-8_1_">
								<g class="st9">
									<path id="path-7_2_" class="st1" d="M11.4,0.2c0.1,0.1,0.2,0.3,0.3,0.5l10.4,34l-0.1,0C22,34.8,22,34.9,22,35
										c0,0.8-1.1,1.5-2.9,2l-0.4,0.1l0,0l-0.5,0.1l0,0l-0.5,0.1c-0.1,0-0.2,0-0.3,0.1l-0.5,0.1c-0.1,0-0.2,0-0.3,0l-0.6,0.1l0,0
										l-0.6,0.1l0,0l-0.6,0.1c-0.1,0-0.2,0-0.3,0L14,37.9l0,0l-0.6,0c-0.1,0-0.2,0-0.3,0l-0.7,0l0,0l-0.7,0l0,0L11,38l0,0l-0.7,0
										l0,0l-0.7,0l0,0L9,38l0,0l-0.6,0l0,0l-0.6,0c-0.1,0-0.2,0-0.3,0l-0.6-0.1l0,0l-0.6-0.1l0,0l-0.6-0.1c-0.1,0-0.2,0-0.3,0
										l-0.5-0.1c-0.1,0-0.2,0-0.3,0L4,37.3c-0.1,0-0.2,0-0.2-0.1l-0.5-0.1l0,0L2.9,37C1.1,36.5,0,35.8,0,35c0-0.1,0-0.2,0.1-0.4
										c0,0,0,0-0.1,0L10.4,0.7C10.6,0,11-0.2,11.4,0.2z"/>
								</g>
							</mask>
							<path id="Fill-3" class="st10" d="M23,35.5L15,39c0,0-4.1-39-4-38.8c0.6-0.3,0.9-0.3,1,0C14.6,7.7,18.2,19.5,23,35.5z"/>
						</g>
					</g>
					<defs>
						<filter id="Adobe_OpacityMaskFilter_4_" filterUnits="userSpaceOnUse" x="166" y="154" width="14" height="4">
							<feColorMatrix  type="matrix" values="1 0 0 0 0  0 1 0 0 0  0 0 1 0 0  0 0 0 1 0"/>
						</filter>
					</defs>
					<mask maskUnits="userSpaceOnUse" x="166" y="154" width="14" height="4" id="mask-5_3_">
						<g class="st11">
							<path id="path-4_4_" class="st1" d="M139.5,189.6c93.5-1,112.5-28,120.7-69.5c6.8-46.5-46-59.5-113.2-59.5
								c-39,0-48-28.4-74-45C37.7-7,0-12.4,0,50.1C0,171.6,62.5,190.5,139.5,189.6z"/>
						</g>
					</mask>
					
						<radialGradient id="椭圆形_3_" cx="84" cy="62.234" r="0.5" gradientTransform="matrix(2.449291e-16 4 14.8932 -9.119484e-16 -753.8663 -180.0008)" gradientUnits="userSpaceOnUse">
						<stop  offset="0" style="stop-color:#FEA210"/>
						<stop  offset="1" style="stop-color:#FFCB78"/>
					</radialGradient>
					<ellipse id="椭圆形_1_" class="st12" cx="173" cy="156" rx="7" ry="2"/>
					<defs>
						<filter id="Adobe_OpacityMaskFilter_5_" filterUnits="userSpaceOnUse" x="92" y="141" width="14" height="4">
							<feColorMatrix  type="matrix" values="1 0 0 0 0  0 1 0 0 0  0 0 1 0 0  0 0 0 1 0"/>
						</filter>
					</defs>
					<mask maskUnits="userSpaceOnUse" x="92" y="141" width="14" height="4" id="mask-5_4_">
						<g class="st13">
							<path id="path-4_5_" class="st1" d="M139.5,189.6c93.5-1,112.5-28,120.7-69.5c6.8-46.5-46-59.5-113.2-59.5
								c-39,0-48-28.4-74-45C37.7-7,0-12.4,0,50.1C0,171.6,62.5,190.5,139.5,189.6z"/>
						</g>
					</mask>
					
						<radialGradient id="椭圆形备份-12_1_" cx="84" cy="62.234" r="0.5" gradientTransform="matrix(2.449291e-16 4 14.8932 -9.119484e-16 -827.8663 -193.0008)" gradientUnits="userSpaceOnUse">
						<stop  offset="0" style="stop-color:#FEA210"/>
						<stop  offset="1" style="stop-color:#FFCB78"/>
					</radialGradient>
					<ellipse id="椭圆形备份-12" class="st14" cx="99" cy="143" rx="7" ry="2"/>
					<defs>
						<filter id="Adobe_OpacityMaskFilter_6_" filterUnits="userSpaceOnUse" x="55" y="129" width="11" height="17">
							<feColorMatrix  type="matrix" values="1 0 0 0 0  0 1 0 0 0  0 0 1 0 0  0 0 0 1 0"/>
						</filter>
					</defs>
					<mask maskUnits="userSpaceOnUse" x="55" y="129" width="11" height="17" id="mask-5_5_">
						<g class="st15">
							<path id="path-4_6_" class="st1" d="M139.5,189.6c93.5-1,112.5-28,120.7-69.5c6.8-46.5-46-59.5-113.2-59.5
								c-39,0-48-28.4-74-45C37.7-7,0-12.4,0,50.1C0,171.6,62.5,190.5,139.5,189.6z"/>
						</g>
					</mask>
					<g id="Fill-3_3_" class="st16">
						<g transform="translate(54.999913, 128.999237)">
							<g id="蒙版_3_">
								<path id="path-10_1_" class="st8" d="M5.7,0.1c0.1,0.1,0.1,0.1,0.1,0.2L11,14.6l0,0c0,0,0,0.1,0,0.1c0,0.3-0.5,0.6-1.4,0.9
									l-0.2,0.1l0,0l-0.2,0l0,0l-0.2,0c0,0-0.1,0-0.1,0l-0.3,0c0,0-0.1,0-0.1,0l-0.3,0l0,0l-0.3,0l0,0l-0.3,0c-0.1,0-0.1,0-0.2,0
									L7,16l0,0l-0.3,0c-0.1,0-0.1,0-0.2,0l-0.3,0l0,0l-0.3,0l0,0l-0.3,0l0,0l-0.3,0l0,0l-0.3,0l0,0l-0.3,0l0,0l-0.3,0l0,0l-0.3,0
									c-0.1,0-0.1,0-0.2,0l-0.3,0l0,0l-0.3,0l0,0l-0.3,0c0,0-0.1,0-0.1,0l-0.3,0c0,0-0.1,0-0.1,0l-0.3,0c0,0-0.1,0-0.1,0l-0.2,0
									l0,0l-0.2-0.1C0.5,15.4,0,15.1,0,14.7c0-0.1,0-0.1,0-0.1c0,0,0,0,0,0L5.2,0.3C5.3,0,5.5-0.1,5.7,0.1z"/>
							</g>
							<defs>
								<filter id="Adobe_OpacityMaskFilter_7_" filterUnits="userSpaceOnUse" x="5" y="0" width="6" height="17">
									<feColorMatrix  type="matrix" values="1 0 0 0 0  0 1 0 0 0  0 0 1 0 0  0 0 0 1 0"/>
								</filter>
							</defs>
							<mask maskUnits="userSpaceOnUse" x="5" y="0" width="6" height="17" id="mask-11_1_">
								<g class="st17">
									<path id="path-10_2_" class="st1" d="M5.7,0.1c0.1,0.1,0.1,0.1,0.1,0.2L11,14.6l0,0c0,0,0,0.1,0,0.1c0,0.3-0.5,0.6-1.4,0.9
										l-0.2,0.1l0,0l-0.2,0l0,0l-0.2,0c0,0-0.1,0-0.1,0l-0.3,0c0,0-0.1,0-0.1,0l-0.3,0l0,0l-0.3,0l0,0l-0.3,0c-0.1,0-0.1,0-0.2,0
										L7,16l0,0l-0.3,0c-0.1,0-0.1,0-0.2,0l-0.3,0l0,0l-0.3,0l0,0l-0.3,0l0,0l-0.3,0l0,0l-0.3,0l0,0l-0.3,0l0,0l-0.3,0l0,0
										l-0.3,0c-0.1,0-0.1,0-0.2,0l-0.3,0l0,0l-0.3,0l0,0l-0.3,0c0,0-0.1,0-0.1,0l-0.3,0c0,0-0.1,0-0.1,0l-0.3,0c0,0-0.1,0-0.1,0
										l-0.2,0l0,0l-0.2-0.1C0.5,15.4,0,15.1,0,14.7c0-0.1,0-0.1,0-0.1c0,0,0,0,0,0L5.2,0.3C5.3,0,5.5-0.1,5.7,0.1z"/>
								</g>
							</mask>
							<path id="Fill-3_2_" class="st18" d="M11,15.5L7,17C7,17,5,0,5,0.1C5.3,0,5.4,0,5.5,0.1C6.8,3.4,8.6,8.5,11,15.5z"/>
						</g>
					</g>
				</g>
			</g>
			<defs>
				<filter id="Adobe_OpacityMaskFilter_8_" filterUnits="userSpaceOnUse" x="69" y="8" width="183" height="177">
					<feColorMatrix  type="matrix" values="1 0 0 0 0  0 1 0 0 0  0 0 1 0 0  0 0 0 1 0"/>
				</filter>
			</defs>
			<mask maskUnits="userSpaceOnUse" x="69" y="8" width="183" height="177" id="mask-2_2_">
				<g class="st19">
					<rect id="path-1_2_" class="st1" width="300" height="300"/>
				</g>
			</mask>
			<g id="编组-11" class="st20">
				<g transform="translate(70.000000, 8.000000)">
					
						<linearGradient id="路径-24_1_" gradientUnits="userSpaceOnUse" x1="67.6834" y1="157.1671" x2="67.6834" y2="156.4439" gradientTransform="matrix(169 0 0 -42.5 -11354 6749.5)">
						<stop  offset="0" style="stop-color:#FFD07D"/>
						<stop  offset="1" style="stop-color:#E66F00"/>
					</linearGradient>
					<polygon id="路径-24" class="st21" points="35,66.5 0,83.7 0,106.3 169,109 169,83.7 142,66.5 					"/>
					
						<linearGradient id="路径-34_1_" gradientUnits="userSpaceOnUse" x1="64.4412" y1="162.0377" x2="64.4412" y2="161.3145" gradientTransform="matrix(34 0 0 -17 -2173 2823.5)">
						<stop  offset="0" style="stop-color:#FFB650"/>
						<stop  offset="1" style="stop-color:#ECA420"/>
					</linearGradient>
					<polygon id="路径-34" class="st22" points="35,67.5 35,84.5 1,84.5 					"/>
					
						<linearGradient id="路径-34备份_1_" gradientUnits="userSpaceOnUse" x1="73.8077" y1="161.5867" x2="73.8077" y2="160.8635" gradientTransform="matrix(-26 0 0 -18 2074 2977.5)">
						<stop  offset="0" style="stop-color:#FFB650"/>
						<stop  offset="1" style="stop-color:#ECA420"/>
					</linearGradient>
					<polygon id="路径-34备份" class="st23" points="142,67.5 142,85.5 168,85.5 					"/>
					
						<linearGradient id="形状结合_1_" gradientUnits="userSpaceOnUse" x1="67.6834" y1="154.5244" x2="67.6834" y2="155.5" gradientTransform="matrix(169 0 0 -92 -11354 14391)">
						<stop  offset="3.229374e-07" style="stop-color:#FF6F00"/>
						<stop  offset="1" style="stop-color:#FEC854"/>
					</linearGradient>
					<path id="形状结合" class="st24" d="M61,99c0,2.2,1.8,4,4,4h35c2.2,0,4-1.8,4-4V85h65v82c0,5.5-4.5,10-10,10H10
						c-5.5,0-10-4.5-10-10V85h61V99z"/>
					<path id="路径-25" class="st25" d="M35,66.5l-35,18L60.3,85l-0.4,13.9c-0.1,2.2,1.7,4,3.9,4.1c0,0,0.1,0,0.1,0h35.2
						c2.2,0,3.9-1.7,4-3.9l0.4-14.1l0,0l65.5-0.5l-27-18H35z"/>
					<path id="路径-4" class="st26" d="M74,82c26-21.7,33.3-34.5,22-38.5c-11.5-4-16.6,11.2-9,15c4.4,2.2,14.4,1.5,21-2.5
						c12-7.3,22.7-15.5,32-24.5"/>
					<g id="编组-9" transform="translate(127.000000, 0.000000)">
						<polygon id="路径-5" class="st27" points="0,10 55,0 39,36 						"/>
						<polygon id="路径-26" class="st28" points="15,20 16,35 54,1 						"/>
					</g>
					
						<g id="编组-6" transform="translate(56.000000, 36.500000) scale(-1, 1) translate(-56.000000, -36.500000) translate(43.000000, 28.000000)">
						<polygon id="路径-5_1_" class="st27" points="0,4.7 26,0 18.4,17 						"/>
						<polygon id="路径-26_1_" class="st28" points="7,9.9 7.5,17 25,1 						"/>
					</g>
				</g>
			</g>
		</g>
	</g>
</g>
</svg>
